<?xml version="1.0" encoding="UTF-8"?><svg xmlns="http://www.w3.org/2000/svg" viewBox="0 0 30.89 37.32"><g id="a"/><g id="b"><g id="c"><path d="M11.44,.24c2.99,0,5.99,.03,8.98,0,2.92-.03,5.84-.13,8.76-.2,.3,0,.64-.08,.88,.04,.32,.17,.56,.5,.83,.76-.31,.25-.61,.52-.94,.74-.1,.07-.29,.01-.44,.02-5.76,.07-11.52,.16-17.28,.21-3.02,.03-6.05,0-9.07,0-1.34,0-1.48,.25-1.36,1.59,.26,2.75,.53,5.5,.64,8.25,.28,7.3,.47,14.61,.71,21.91,.02,.7,.16,1.39,.18,2.09,.02,.72,.13,1.68-.91,1.67-.96,0-.85-.92-.86-1.62-.01-4,.05-8-.06-11.99-.09-3.35-.42-6.69-.6-10.03-.11-2.07-.1-4.14-.25-6.2C.53,5.58,.26,3.69,.05,1.8-.03,1.12-.16,.45,.93,.46c3.5,.03,7.01,.01,10.51,.01V.24ZM2.17,21.93h.14c-.12-2.86-.23-5.72-.36-8.57-.05-1.14-.13-2.27-.22-3.41-.2-2.52-.41-5.05-.61-7.57-.07-.89,.33-1.27,1.24-1.25,1.59,.04,3.18,0,4.77,0,2.28,0,4.56,0,6.84,0-4.42-.13-8.84-.31-13.14-.16l1.35,20.95Zm.12,11.93h.1v-11.01h-.1v11.01ZM29.72,.87v-.11h-8.37v.11h8.37Z"/></g></g></svg>