<?xml version="1.0" encoding="UTF-8"?><svg xmlns="http://www.w3.org/2000/svg" viewBox="0 0 36.15 3.11"><g id="a"/><g id="b"><g id="c"><path d="M16.49,2.9c-2.9,0-5.8,.03-8.7-.01-2.09-.03-4.18-.1-6.25-.31-.54-.05-1.03-.68-1.54-1.05C.5,1.14,.98,.42,1.49,.4c1.51-.07,3.02,.17,4.54,.21,3.89,.12,7.78,.34,11.66,.25,5.39-.14,10.78-.54,16.17-.8,.86-.04,2.2-.31,2.28,.8,.09,1.28-1.45,1.07-2.21,1.13-5.8,.46-11.62,.77-17.43,1.13v-.21Zm4.53-1.25c-.28,.04-.56,.11-.84,.1-3.34-.08-6.69-.15-10.03-.25-2.4-.08-4.8-.22-7.2-.3-.56-.02-1.13,.1-1.7,.16,1.5,.42,2.95,.65,4.41,.66,4.69,.04,9.39,.02,14.08-.02,.42,0,.83-.25,1.26-.37l12.85-.24v-.44c-3.91,.18-7.82,.35-11.72,.54-.37,.02-.74,.11-1.12,.17Z"/></g></g></svg>