<?xml version="1.0" encoding="UTF-8"?><svg xmlns="http://www.w3.org/2000/svg" viewBox="0 0 39.34 37.97"><g id="a"/><g id="b"><g id="c"><g><path d="M35.98,8.01c1.79,2.34,2.77,5.01,3.12,7.9,.29,2.4,.39,4.82-.09,7.23-.33,1.69-1.09,3.17-1.95,4.62-1.23,2.05-2.94,3.62-4.77,5.11-2.91,2.38-6.13,4.05-9.86,4.71-.77,.14-1.54,.26-2.31,.4h-3.65c-1.47-.32-2.93-.71-4.42-.93-2-.31-3.78-1.02-5.3-2.37l-.08-.57c1.94,1.63,4.21,2.36,6.7,2.73,2.58,.38,5.1,.9,7.75,.52,3.44-.49,6.6-1.55,9.37-3.67,.71-.55,1.4-1.13,2.13-1.64,2.32-1.62,3.87-3.88,5.06-6.37,1.73-3.64,1.36-7.46,.69-11.25-.38-2.19-1.37-4.17-2.59-6.02l.19-.38Z"/><path d="M33.75,5.84c-.23-.11-.46-.2-.67-.34-1.65-1.04-3.24-2.19-4.95-3.11-2.3-1.23-4.85-1.52-7.42-1.64-1.6-.07-3.2-.25-4.8-.3-2.09-.07-4.21-.07-6.16,.8-.63,.28-1.09,.93-1.64,1.39-.9,.76-1.81,1.5-2.72,2.26,.12-.25,.18-.56,.36-.75C7.46,2.35,9.32,.73,11.81,.06c.22-.06,.46-.07,.69-.06,.58,.02,1.15,.13,1.72,.11,3.5-.18,6.99,.11,10.43,.68,1.7,.28,3.36,1.05,4.92,1.84,1.33,.66,2.49,1.66,3.72,2.51l.46,.7Z"/><path d="M3.73,7.7c-.41,.99-.76,2.01-1.24,2.97-1.13,2.28-1.44,4.76-1.88,7.22-.63,3.46,.5,6.61,1.42,9.81,.07,.25,.14,.5,.21,.76l-.37,.02C.77,25.21-.34,22,.1,18.41c.43-3.56,1.29-6.93,2.97-10.08,.14-.26,.44-.42,.66-.63Z"/><path d="M1.87,28.48l.37-.02,2.99,4.46,.63,.79c-.21-.09-.45-.14-.61-.28-1.57-1.35-2.65-3.03-3.38-4.95Z"/><path d="M33.75,5.84l-.46-.7,2.04,2.1-1.08-.79-.51-.61Z"/><path d="M34.26,6.45l1.08,.79,.64,.78-.19,.38-1.54-1.95Z"/><path d="M5.86,33.71l-.63-.79,1.45,1.18,.08,.57-.9-.96Z"/><path d="M8.58,32.6c.19,.07,.41,.1,.57,.21,2.39,1.63,5.08,2.43,7.9,2.79,6.38,.83,11.87-1.24,16.32-5.7,2.83-2.84,4.15-6.52,4.21-10.61,.07-4.65-1.97-8.55-4.35-12.31-.36-.57-1.15-.88-1.73-1.31l.2-.19c1.08,.38,1.9,1.03,2.45,2.08,1.26,2.37,2.62,4.68,3.27,7.33,.86,3.48,.77,6.86-.61,10.21-2.72,6.6-8.01,9.85-14.71,10.86-4.07,.61-8.16-.02-11.9-2-.61-.32-1.09-.9-1.62-1.37Z"/><path d="M31.7,5.48l-.2,.19c-2.91-2.57-6.58-3.32-10.19-4.06-2.75-.56-5.58-.69-8.33,.34-3.42,1.27-5.94,3.53-7.67,6.72-1.9,3.49-2.41,7.23-1.85,11.11,.38,2.62,.95,5.21,1.44,7.82l-.13,.24c-.4-1.4-.94-2.79-1.16-4.22-.36-2.42-.75-4.87-.7-7.3,.14-5.93,2.65-10.65,7.81-13.79,2.52-1.53,5.31-1.78,8.17-1.6,3.32,.21,6.46,1.2,9.54,2.38,.88,.34,1.7,.84,2.51,1.33,.31,.19,.51,.56,.76,.85Z"/><path d="M4.75,27.83l.13-.24c.17,.27,.37,.52,.49,.8,.55,1.29,1.34,2.41,2.37,3.36,.2,.19,.33,.45,.5,.67-.17-.05-.38-.06-.5-.16-1.4-1.2-2.48-2.63-2.99-4.43Z"/></g></g></g></svg>