<?xml version="1.0" encoding="UTF-8"?><svg xmlns="http://www.w3.org/2000/svg" viewBox="0 0 42.13 20.24"><g id="a"/><g id="b"><g id="c"><g><path d="M30.89,16.38c.88-.26,1.4,.3,1.95,.84,1.65,1.63,4.59,2.04,6.42,.44,1.49-1.3,1.49-2.94,1.07-4.65-.68-2.71-2.67-5.12-5.95-5.24-.93-.04-.87-.9-.79-1.51,.2-1.6,.47-3.19,.81-4.77,.07-.31,.56-.69,.91-.76,1.45-.3,2.91-.52,4.38-.7,.55-.07,1.15-.02,1.69,.12,.27,.07,.45,.49,.67,.75-.29,.21-.57,.55-.88,.59-1.4,.2-2.81,.34-4.21,.45-.87,.07-1.3,.45-1.33,1.34-.02,.51-.04,1.06-.22,1.52-.47,1.2,.22,1.46,1.17,1.78,3.51,1.16,5.94,5.03,5.53,8.98-.34,3.23-3.79,5.36-6.94,4.47-1.35-.38-2.58-.9-3.63-1.84-.66-.59-.77-.81-.63-1.82Zm6.66-8.5l.12-.14c-.69-.26-1.36-.66-2.07-.74-.72-.09-.87-.39-.83-1,.02-.3,0-.61,0-.92h-.19l-.25,1.89,3.21,.91Z"/><path d="M3.15,12.12c1.9,.1,3.55,.2,5.2,.26,2.63,.09,5.27,.14,7.9,.2,.63,.01,1.13,.14,1.01,.93-.11,.75-.65,.75-1.25,.74-1.44-.03-2.88,.03-4.31,0-1.62-.04-3.25-.13-4.87-.19-1.87-.07-3.73-.11-5.6-.22-.42-.02-.82-.3-1.23-.45,.2-.44,.27-1.05,.61-1.3,1.8-1.33,3.65-2.59,5.5-3.85,1.99-1.35,4.01-2.67,6.02-4,.2-.13,.4-.35,.61-.36,.5-.04,1,.02,1.51,.04-.25,.39-.42,.91-.77,1.15-2.99,2.03-6.02,4-9.03,6.01-.4,.27-.75,.61-1.31,1.06Zm3.77,1.16v.16h9.59v-.16H6.92Zm-6.19-.35l.08,.37,3.28-.16v-.15H2.06v-1.15l-1.33,1.09Z"/><path d="M24.54,15.21c.25-2.23,.48-4.38,.72-6.54,.18-1.64,.37-3.29,.53-4.93,.02-.19-.04-.42-.14-.58-.59-.97-.18-2.54,.81-3.01,.53-.26,1.09,.23,1.06,1-.06,1.27-.15,2.55-.29,3.82-.25,2.33-.55,4.65-.79,6.98-.11,1.06-.14,2.14-.22,3.2-.02,.27-.05,.57-.19,.79-.21,.31-.52,.55-.79,.82-.23-.33-.5-.65-.68-1-.09-.16-.01-.41-.01-.55Zm2.03-10.59l.27-3.62h-.17l-.77,1.3,.3-.04,.37,2.35Z"/></g></g></g></svg>