<?xml version="1.0" encoding="UTF-8"?><svg xmlns="http://www.w3.org/2000/svg" viewBox="0 0 42.08 19.45"><g id="a"/><g id="b"><g id="c"><g><path d="M29.63,14.4l.82-1.04c.29,.3,.71,.55,.84,.91,.77,2.01,2.07,3.38,4.29,3.53,.55,.04,1.34-.26,1.67-.68,1.25-1.58,2.26-3.27,.84-5.58-.84-1.37-1.78-2.55-3.08-3.43-.54-.36-1.2-.61-1.84-.76-.82-.2-1.25-.6-1.22-1.47,.03-.86-.09-1.73,.05-2.57,.07-.41,.5-.98,.89-1.09,2.03-.58,4.09-1.02,6.14-1.54,.51-.13,.97-.42,1.47-.57,.61-.19,1.3-.22,1.52,.53,.19,.67-.12,1.03-.92,1.19-1.08,.22-2.09,.77-3.15,1.12-.32,.11-.71,.03-1.05,.1-.86,.15-1.75,.26-2.56,.55-.35,.13-.73,.66-.76,1.04-.04,.49,.04,1.05,.77,1.32,2.86,1.04,4.61,3.31,5.73,5.96,.8,1.89,.23,3.83-.92,5.53-.16,.23-.33,.47-.52,.67-.86,.87-1.73,1.53-3.14,1.28-2.38-.41-4.29-1.37-5.33-3.66-.17-.38-.31-.77-.53-1.34Zm5.66-7.14c-1.18-.72-2.87-.89-2.55-2.99-.12,.51-.2,.95-.1,1.35,.09,.37,.3,.85,.6,1,.63,.31,1.36,.44,2.05,.64Zm-.09-5.08q2.23,.3,3.08-.47l-3.08,.47Z"/><path d="M13.48,7.27c-2.19-.63-4.21-1.21-6.24-1.79-1.56-.45-3.11-.91-4.66-1.37-.27-.08-.6-.1-.79-.28-.23-.21-.5-.6-.45-.83,.06-.25,.46-.56,.75-.6,.4-.06,.84,.06,1.24,.18,3.28,.97,6.55,1.97,9.83,2.93,.54,.16,1.12,.17,1.65,.34,.37,.12,.9,.31,.99,.6,.09,.28-.19,.8-.45,1.06-2.76,2.7-5.93,4.82-9.39,6.54-1.58,.78-3.04,1.81-4.56,2.71-.28,.17-.74,.45-.89,.35C.24,16.92,0,16.48,0,16.15c0-.3,.25-.73,.51-.88,3.19-1.81,6.44-3.54,9.6-5.4,1.18-.69,2.19-1.68,3.36-2.61Zm-1.84-1.47l-.13,.18c.53,.17,1.06,.32,1.58,.5,.49,.17,.97,.37,1.59,.61l.44-.49-3.48-.79Z"/><path d="M24.43,5.71c-.28,.42-.36,.66-.52,.74-.26,.13-.71,.3-.82,.19-.2-.2-.38-.66-.28-.89,.41-.94,.87-1.86,1.42-2.73,.15-.25,.68-.44,.97-.37,.29,.07,.71,.48,.71,.75,.03,1.42-.04,2.84-.09,4.27,0,.18-.07,.35-.07,.53-.08,2.35-.15,4.69-.23,7.04,0,.29,.09,.65-.05,.84-.27,.36-.68,.62-1.03,.92-.21-.37-.62-.74-.6-1.1,.15-2.98,.39-5.95,.59-8.93,.02-.32,0-.64,0-1.26Zm.78-2.31l-.23-.05-.97,1.73q.84-.29,1.21,1.97V3.4Z"/></g></g></g></svg>