<?xml version="1.0" encoding="UTF-8"?><svg xmlns="http://www.w3.org/2000/svg" viewBox="0 0 34.26 37.95"><g id="a"/><g id="b"><g id="c"><path d="M19.23,4.05c-.87,3.75-1.64,7.31-2.54,10.83-.76,2.94-1.68,5.83-2.52,8.75-1.19,4.13-2.38,8.27-3.56,12.41-.33,1.16-.54,1.22-1.85,1.09-2.19-.21-4.39-.3-6.58-.44-.35-.02-.76,.11-1.03-.03-.45-.23-1.09-.6-1.13-.98-.08-.65,.6-.7,1.15-.67,2.55,.11,5.1,.21,7.84,.32,.27-.85,.63-1.99,.99-3.13,.8-2.53,1.66-5.04,2.4-7.59,1.14-3.94,2.21-7.89,3.27-11.85,.77-2.9,1.48-5.81,2.2-8.73,.27-1.1,.45-2.23,.76-3.32,.09-.3,.58-.75,.79-.7,.34,.07,.79,.47,.85,.79,.61,3.15,1.21,6.3,1.67,9.47,.23,1.61,.13,3.27,.27,4.9,.29,3.36,.64,6.71,.96,10.07,.17,1.76,.35,3.52,.48,5.28,.11,1.42,.1,2.86,.26,4.27,.03,.31,.51,.76,.84,.82,1.22,.22,2.46,.36,3.7,.44,1.63,.11,3.27,.11,4.9,.26,.35,.03,.96,.55,.94,.8-.05,.66-.56,.96-1.29,.81-.81-.16-1.62-.32-2.44-.38-2.42-.17-4.85-.3-7.28-.43-.68-.04-.85-.43-.9-1.03-.19-2.6-.4-5.19-.61-7.78-.29-3.67-.54-7.34-.87-11.01-.3-3.34-.66-6.68-1.03-10.01-.11-.99-.37-1.96-.62-3.21Zm2.39,13.43h-.25c.52,5.43,1.04,10.86,1.57,16.29l.28-.03-1.6-16.26Zm11.81,19.83l.02-.33c-.98-.09-1.97-.22-2.95-.28-1.73-.1-3.47-.08-5.2-.25-.99-.1-2.15-.21-2.33-1.64,.08,.62,.22,1.53,.54,1.6,1.41,.3,2.87,.38,4.32,.49,1.42,.11,2.84,.14,4.26,.23,.45,.03,.89,.12,1.33,.19ZM19.65,.7l-.31,.04-.55,2.52c.69-.47,1.01-.39,1.09,.4,.09,.87,.28,1.73,.42,2.59l.22-.04-.87-5.51ZM1.13,35.56l-.02,.28,6.89,.35v-.23l-6.87-.41Z"/></g></g></svg>