<?xml version="1.0" encoding="UTF-8"?><svg xmlns="http://www.w3.org/2000/svg" viewBox="0 0 47.92 34.25"><g id="a"/><g id="b"><g id="c"><path d="M32.37,15c0,2.49-.02,4.99,.02,7.48,0,.3,.25,.77,.49,.85,2.27,.72,3.95,2.38,5.89,3.62,1.52,.97,3.09,1.84,4.61,2.81,1.35,.86,2.67,1.77,3.99,2.68,.54,.37,.77,.91,.32,1.49-.49,.63-.97,.18-1.41-.11-2.59-1.7-5.18-3.41-7.75-5.13-1.19-.8-2.29-1.74-3.53-2.43-1.1-.62-2.37-.92-3.5-1.5-2.32-1.19-4.77-.38-7.15-.59-3.55-.31-7.1-.54-10.65-.82-1.36-.11-2.51,0-3.57,1.18-1.87,2.09-4.02,3.92-6.01,5.91-.73,.72-1.32,1.57-2,2.35-.27,.31-.53,.7-.88,.84-.35,.14-.81,0-1.22-.02,.08-.33,.05-.76,.25-.97,2.35-2.54,4.73-5.05,7.12-7.56,.76-.8,1.51-1.61,2.35-2.33,.99-.85,1.23-1.96,1.37-3.16,.3-2.47,.66-4.92,.96-7.39,.12-.98,.2-1.97,.26-2.96,.09-1.68,.15-3.36,.22-5.04,.05-1.09,.06-2.18,.18-3.27,.03-.28,.35-.68,.62-.76,.54-.16,1.15-.24,1.71-.17,4.24,.57,8.48,1.2,12.72,1.78,.61,.08,1.24,.02,1.86,.03,1.28,0,1.82,.46,1.91,1.75,.17,2.54,.28,5.07,.43,7.61,.07,1.26,.18,2.53,.27,3.79h.14Zm11.91,16.51l2.8,2.03,.23-.34c-.97-.6-1.93-1.2-2.9-1.79-.02-.01-.1,.08-.15,.12-.18-.25-.3-.57-.54-.72-1.37-.87-2.77-1.71-4.16-2.54-.14-.08-.33-.09-.49-.13l-.05,.12c1.75,1.09,3.5,2.17,5.25,3.25Zm-11.41-7.43c.04,.1,.05,.24,.12,.28,1.09,.68,2.18,1.35,3.28,2.01,.17,.11,.37,.18,.78,.37-1.23-1.5-2.73-2.05-4.21-2.64-1.28-.31-1.27-1.36-1.29-2.35-.09-3.22-.11-6.45-.22-9.67-.09-2.7-.26-5.4-.41-8.1-.07-1.29-.31-1.45-1.49-1.3,.29,.25,.89,.53,1.04,.96,.24,.68,.21,1.47,.25,2.22,.09,1.95,.16,3.91,.23,5.87,.13,3.39,.25,6.79,.4,10.18,.03,.78-.18,1.26-1.05,1.28-1.34,.03-2.68,.18-4.01,.11-2.46-.13-4.9-.41-7.36-.58-1.64-.11-3.29-.11-4.92-.23-2.14-.16-2.14-.19-2.34-1.81l-1.08,2.35c.5-.08,1.23-.28,1.96-.31,.78-.02,1.56,.14,2.34,.18,2.66,.15,5.32,.3,7.99,.41,2.37,.1,4.74,.14,7.11,.22,.36,.01,.71,.14,1.07,.21,.61,.11,1.22,.21,1.82,.32Zm-20.51-2.37c1.49,.13,2.96,.27,4.44,.39,.92,.08,1.84,.16,2.75,.18,1.25,.04,2.51,0,3.76,.05,2.15,.1,4.29,.26,6.44,.37,.61,.03,1.01-.21,.97-.97-.1-2.29-.13-4.59-.21-6.88-.12-3.25-.3-6.51-.4-9.76-.05-1.63-.03-1.51-1.78-1.79-2.68-.42-5.37-.79-8.07-1.15-1.98-.26-3.97-.46-5.82-.67l-2.09,20.23ZM13.44,2.59c.27-1.97,.11-1.61,1.96-1.55,1.79,.06,3.58,.35,5.37,.55,.57,.06,1.14,.17,1.71,.25,.52,.07,1.05,.15,1.57,.22l.04-.31c-2.86-.37-5.72-.85-8.59-1.09-2.58-.22-2.16-.25-2.06,1.94Z"/></g></g></svg>