<?xml version="1.0" encoding="UTF-8"?><svg xmlns="http://www.w3.org/2000/svg" viewBox="0 0 46.7 23.49"><g id="a"/><g id="b"><g id="c"><path d="M23.46,13.35c-3.92-.2-7.86-.39-11.8-.59-.5-.03-1.04-.05-1.48-.26-.92-.45-1.47,.02-1.97,.66-1.44,1.81-2.91,3.59-4.27,5.46-.9,1.23-1.64,2.59-2.46,3.89-.29,.46-.53,1.28-1.18,.89-.3-.18-.42-1.27-.17-1.66,1.38-2.21,2.87-4.35,4.36-6.48,.95-1.35,2.01-2.63,2.96-3.98,.16-.23,.12-.77-.04-1.04C5.76,7.43,4.04,4.67,2.4,1.87c-.25-.43-.21-1.03-.3-1.55,.45-.06,.91-.18,1.36-.18,1.29,0,2.58,.03,3.88,.07,3.01,.1,6.02,.22,9.03,.31,2.5,.08,5,.18,7.51,.17,1.54,0,3.08-.18,4.62-.27,2.46-.14,4.92-.29,7.38-.42,.82-.04,1.12,.42,1.01,1.17-.27,2.01-.56,4.02-.84,6.03-.17,1.21-.43,2.42-.51,3.63-.03,.41,.28,.98,.62,1.27,3.24,2.72,6.52,5.39,9.76,8.1,.37,.31,.67,.81,.77,1.27,.08,.37-.18,.81-.3,1.22-.36-.15-.77-.23-1.06-.46-3.05-2.53-6.19-4.97-9.09-7.67-1.87-1.74-3.84-1.89-6.16-1.59-2.18,.28-4.39,.26-6.62,.38Zm15.3,1.97l3.22,3.37,.3-.33-3.54-3.02c-.83-.67-1.73-1.27-2.46-2.03-.59-.61-1.32-1.38-1.4-2.14-.12-1.18,.27-2.41,.43-3.62,.29-2.19,.58-4.37,.88-6.65-1.95,0-3.81-.08-5.66,.02-3.35,.17-6.7,.54-10.05,.63-1.87,.05-3.75-.36-5.63-.41-3.08-.07-6.17,0-9.26-.03-.96-.01-1.91-.2-3.01-.32l1.11,1.69c-.02-1,.5-1.16,1.29-1.14,1.16,.04,2.33-.03,3.49,0,2.86,.09,5.71,.21,8.57,.31,2.42,.08,4.85,.25,7.27,.2,2.46-.05,4.92-.33,7.39-.5,.96-.07,1.93-.1,2.89-.19,.65-.06,.97,.18,.91,.83-.07,.76-.15,1.52-.23,2.28-.24,2.17-.45,4.34-.74,6.51-.04,.29-.39,.74-.65,.77-1.59,.22-3.2,.44-4.81,.49-2.71,.08-5.43,.08-8.14,0-3.08-.09-6.16-.26-9.23-.48-1.06-.08-2.1-.41-3.21-.64l-.55,1.03c.7-.1,1.43-.3,2.15-.29,.6,0,1.19,.34,1.79,.37,3.54,.19,7.09,.44,10.64,.45,2.96,.01,5.92-.27,8.88-.43,1.69-.09,3.25,.01,4.57,1.37,.77,.79,1.86,1.27,2.81,1.88Zm-3.85-13.56c-10.05,1.62-20.08,.13-30.22,.29,.16,.38,.23,.59,.33,.79,1.35,2.4,2.7,4.81,4.09,7.18,.18,.31,.63,.59,.98,.64,2.36,.28,4.73,.67,7.1,.69,5.26,.04,10.53-.11,15.79-.23,.29,0,.7-.38,.84-.68,.2-.44,.21-.97,.27-1.46,.26-2.25,.51-4.5,.82-7.21Z"/></g></g></svg>