<?xml version="1.0" encoding="UTF-8"?><svg xmlns="http://www.w3.org/2000/svg" viewBox="0 0 44.56 38.39"><g id="a"/><g id="b"><g id="c"><path d="M35.98,14.74c-.19,2.75-.42,6.08-.63,9.42-.02,.27,.05,.6,.21,.81,1.93,2.61,3.86,5.22,5.84,7.8,.99,1.29,2.13,2.47,3.05,3.8,.23,.33,.08,1.21-.21,1.57-.5,.61-.93-.04-1.22-.42-2.89-3.75-5.82-7.46-8.59-11.29-1.11-1.53-2.65-1.39-4.07-1.49-3.86-.27-7.73-.3-11.59-.5-1.85-.1-3.68-.37-5.52-.53-.29-.02-.68,.04-.88,.21-1.46,1.26-2.89,2.55-4.31,3.85-1.92,1.75-3.81,3.52-5.72,5.28-.14,.12-.3,.22-.46,.32-.58,.36-1.28,.8-1.74,.03-.44-.73,.36-1.05,.83-1.46,2.21-1.93,4.41-3.86,6.59-5.82,1.13-1.02,2.24-2.07,3.26-3.19,.35-.38,.57-1,.61-1.53,.22-2.62,.37-5.25,.51-7.87,.09-1.55,.11-3.1,.19-4.65,.14-2.77,.27-5.54,.48-8.31,.02-.27,.52-.72,.81-.72,3.43-.05,6.86-.06,10.28-.02,2.98,.03,5.95,.18,8.93,.19,.94,0,1.5,.32,1.69,1.21,.46,2.08,1.03,4.15,1.3,6.25,.27,2.13,.23,4.31,.36,7.06Zm-.91,2.69c-.1,.15-.28,.3-.29,.45-.1,1.56-.2,3.11-.23,4.67-.02,.98-.29,1.51-1.42,1.46-1.95-.08-3.91,0-5.87-.04-.78-.01-1.11-.39-.93-1.25,.21-.96,.32-1.95-.2-2.87-.11,.98-.13,1.95-.1,2.92,.02,.69-.21,1.05-.96,1-1.74-.1-3.49-.12-5.23-.28-.28-.03-.75-.64-.72-.95,.23-2.68,.52-5.37,.88-8.03,.11-.77,.06-1.83,1.26-1.93,1.4-.12,2.81-.18,4.22-.24,.67-.03,1.06,.29,1,1.01-.04,.44-.07,.89-.09,1.33-.06,1.2-.11,2.4-.16,3.59h.16l.54-6.16c-2.02,0-3.95-.02-5.88,0-.82,.01-1.15,.62-1.23,1.32-.2,1.69-.33,3.38-.5,5.07-.14,1.36-.26,2.72-.5,4.06-.05,.29-.61,.67-.95,.69-1,.03-2.02,.01-2.99-.2-.92-.21-2.18,.27-2.66-1.13l-.23,1.28c2.95,.26,5.85,.59,8.77,.75,3.01,.17,6.03,.09,9.03,.28,1.79,.11,3.81-.36,5.22,1.69-.2-.78-.45-1.27-.42-1.75,.13-2.26,.33-4.51,.51-6.77v-6.36h0v6.37ZM14.06,1.8c-.2,3.03-.41,5.97-.59,8.92-.16,2.56-.3,5.12-.45,7.69-.05,.89-.16,1.77-.21,2.65-.04,.67,.11,1.14,.96,1.17,1.11,.03,2.23,.09,3.31,.32,.79,.17,1.02-.08,1.11-.76,.37-3.01,.78-6.01,1.09-9.02,.08-.72,.42-1.05,1.01-1.08,2.15-.12,4.31-.16,6.47-.25,.63-.03,.89,.24,.85,.86-.09,1.37-.18,2.74-.25,4.11-.12,2.27-.22,4.54-.33,6.83l6.68,.3c.21-2.81,.48-5.53,.59-8.26,.07-1.74-.01-3.51-.22-5.24-.29-2.44-.75-4.86-1.16-7.29-.11-.64-.57-.73-1.17-.74-3.05-.04-6.1-.16-9.16-.2-2.78-.04-5.56,0-8.52,0Zm11.22,21.15l.44-9.99c-1.3,.1-2.52,.24-3.74,.26-.97,.01-1.3,.45-1.36,1.35-.1,1.47-.28,2.93-.43,4.4-.13,1.27-.28,2.54-.44,3.98h5.52ZM13.27,1.55c.41-.14,.81-.4,1.23-.4,2.82-.04,5.64-.05,8.46-.01,3.09,.04,6.17,.16,9.25,.21,.7,.01,1.09,.25,1.26,.96,.18,.74,.48,1.45,.73,2.18-.04-.93-.32-1.8-.51-2.69-.15-.72-.55-.89-1.25-.89-3.35-.04-6.7-.17-10.05-.21-3.03-.04-6.07,0-9.12,0v.87Z"/></g></g></svg>