<?xml version="1.0" encoding="UTF-8"?><svg xmlns="http://www.w3.org/2000/svg" viewBox="0 0 46.07 37.54"><g id="a"/><g id="b"><g id="c"><g><path d="M34.92,9.93c0,4.35-.09,8.69,.07,13.03,.03,.89,.85,1.86,1.5,2.62,2.67,3.13,5.42,6.2,8.15,9.29,.18,.21,.4,.48,.64,.53,.57,.11,.92,.38,.75,.94-.14,.45-.41,.99-.78,1.18-.24,.12-.88-.25-1.14-.57-1.28-1.56-2.41-3.24-3.75-4.74-2.07-2.33-4.27-4.54-6.42-6.8-.09-.1-.24-.21-.36-.21-1.3-.03-2.61-.04-3.92-.05-1.89-.02-3.79-.06-5.68-.05-.61,0-1.22,.18-1.84,.27-.27,.04-.56,.11-.82,.06-1.92-.36-3.83-.75-5.74-1.12-.53-.1-1.09-.07-1.59-.24-1.58-.54-2.36,.51-3.06,1.56-1.87,2.79-4.3,5.04-6.74,7.3-.96,.89-1.83,1.87-2.82,2.72-.35,.3-.91,.37-1.38,.54,.05-.56-.09-1.27,.2-1.65,.67-.89,1.49-1.68,2.35-2.4,3.09-2.6,5.8-5.55,8.11-8.85,.4-.57,.58-1.38,.66-2.09,.27-2.58,.52-5.16,.65-7.75,.11-2.14-.03-4.29,.05-6.43,.07-1.91,.23-3.81,.46-5.7,.05-.38,.52-.95,.87-1.01C14.57,.1,15.83,.08,17.07,0c.18-.01,.36,.06,.54,.06,2.57,.08,5.14,.11,7.71,.24,2.38,.13,4.75,.38,7.12,.56,.28,.02,.57-.03,.86-.04,.59-.01,.93,.19,.97,.86,.16,2.74,.36,5.49,.54,8.23h.1ZM11.02,23.98c.72-.25,1.46-.76,2.16-.71,1.68,.11,3.34,.46,5,.75,1.16,.2,2.29,.6,3.45,.68,1.63,.12,3.28,.06,4.92,.03,2.23-.04,4.47-.11,6.7-.22,.66-.03,1.02,.24,1.46,.69,1.4,1.44,2.88,2.8,4.34,4.19-.15-.3-.37-.55-.61-.79-.79-.8-1.66-1.54-2.37-2.41-.76-.93-1.77-1.75-1.8-3.11-.08-3.63-.14-7.26-.22-10.88-.06-2.86-.13-5.73-.24-8.59-.02-.67-.19-1.34-.3-2.03-3.48-.21-6.9-.43-10.33-.61-2.06-.11-4.12-.16-6.18-.22-.89-.03-1.77-.03-2.66,0-.66,.03-1.19,.27-1.25,1.06-.12,1.73-.31,3.46-.38,5.19-.08,2.06,.03,4.13-.08,6.19-.13,2.42-.32,4.84-.68,7.23-.18,1.2,.17,2.59-.93,3.56l-4.61,5.66,.21,.17c1.47-1.77,2.94-3.54,4.39-5.33,.08-.1,0-.33,0-.49ZM1.2,34.27l.2,.22,4.36-3.81-.21-.23-4.34,3.82Zm44.08,2.28l-2.38-2.8-.14,.13,2.26,3.16c.19-.36,.29-.54,.26-.5Z"/><path d="M25.88,5.7c-.04,.89-.12,1.79-.1,2.68,.04,2.14,.13,4.28,.19,6.41,.08,2.73,.12,5.46,.23,8.18,.04,.87-.25,1.2-1.12,1.12-.65-.06-1.32-.08-1.96,0-1.13,.15-1.49-.44-1.52-1.42-.07-2.72-.13-5.44-.22-8.15-.13-3.8-.31-7.61-.42-11.41-.05-1.88-.2-1.73,1.65-1.74,1.08,0,2.17,0,3.26,0V5.7Zm-.84-3.73c-.78-.05-1.57-.07-2.35-.15-.88-.09-1.15,.27-1.1,1.13,.18,2.78,.35,5.55,.44,8.34,.12,3.7,.14,7.4,.26,11.09,.01,.36,.36,.96,.63,1.01,.84,.13,1.71,.05,2.59,.05l-.47-21.46Z"/><path d="M15.93,1.17c1.43,0,2.69-.03,3.95,.03,.23,.01,.6,.41,.63,.66,.13,1.04,.18,2.09,.21,3.14,.22,5.79,.43,11.59,.64,17.38,.06,1.55-.09,1.69-1.6,1.49-.11-.01-.22,0-.33-.01-2.42-.43-2.43-.43-2.64-2.91-.16-1.87-.37-3.74-.42-5.61-.07-2.7,.03-5.4-.04-8.1-.04-1.61-.28-3.22-.41-4.84-.03-.35,0-.71,0-1.23Zm.7,.44c0,1.1-.06,2.07,.01,3.04,.16,2.36,.46,4.72,.57,7.08,.15,3.35,.16,6.7,.28,10.04,.01,.34,.24,.88,.48,.95,.86,.28,1.77,.39,2.66,.57l-.65-21.38c-.71-.13-1.2-.25-1.7-.3-.5-.04-1.01,0-1.64,0Z"/><path d="M25.88,5.72c.1-.89,.21-1.78,.28-2.67,.04-.42,0-.86,0-1.5,1.31,.11,2.47,.18,3.63,.32,.16,.02,.4,.36,.41,.56,.07,1.07,.09,2.15,.12,3.22,.08,3.63,.1,7.25,.26,10.88,.09,2.08,.4,4.15,.61,6.22,.1,.99-.33,1.41-1.32,1.35-.72-.04-1.46-.05-2.18,0-.84,.06-1.09-.36-1.09-1.09,0-1.05,.02-2.11-.01-3.16-.15-4.42-.31-8.84-.48-13.26-.01-.3-.16-.59-.25-.89v.02Zm.85-3.68l.44,21.38c.97,0,1.73,.02,2.48,0,.62-.02,1-.29,.91-1.02-.16-1.25-.36-2.51-.42-3.76-.18-3.98-.31-7.97-.46-11.95-.02-.54-.01-1.09-.05-1.63-.06-.83,.15-1.93-.3-2.42-.45-.5-1.56-.39-2.6-.59Z"/><path d="M15.97,13.38c.21,2.84,.45,5.69,.6,8.53,.09,1.56-.05,1.64-1.57,1.3-.82-.18-1.89-.2-2.37-.72-.41-.45-.21-1.52-.18-2.31,.13-3.94,.26-7.88,.44-11.82,.09-1.94,.27-3.87,.45-5.8,.06-.69,.45-1.23,1.18-1.37,.47-.1,.95-.14,.99,.6,.22,3.75,.46,7.49,.7,11.23,0,.11,0,.22-.01,.33l-.22,.02Zm-.82-11.49l-.61-.14c-.19,.44-.53,.87-.55,1.31-.19,3.76-.32,7.51-.46,11.27-.02,.4,0,.8-.04,1.2-.15,2.05-.32,4.1-.44,6.16-.01,.2,.25,.56,.44,.6,.76,.16,1.54,.22,2.31,.32L15.15,1.89Z"/><path d="M33.83,15.34c0,2.54,.02,5.08-.02,7.63,0,.35-.28,.7-.43,1.05-.49-.33-1.42,.19-1.57-.8-.13-.85-.28-1.7-.36-2.55-.17-1.97-.36-3.95-.45-5.92-.12-2.93-.15-5.86-.24-8.79-.03-1.01-.14-2.01-.21-3.02-.06-.83,.43-1.08,1.15-1.04,1.59,.09,1.6,.1,1.7,1.75,.21,3.9,.42,7.79,.63,11.69h-.19Zm-.99,7.96l.34-.14c0-.39,0-.77,0-1.16-.14-6.12-.3-12.25-.42-18.37-.01-.66-.07-1.16-.88-1.15-.91,.01-.66,.71-.65,1.2,.05,2.5,.07,5,.23,7.49,.24,3.78,.57,7.55,.89,11.32,.02,.28,.33,.54,.5,.81Z"/></g></g></g></svg>