<?xml version="1.0" encoding="UTF-8"?><svg xmlns="http://www.w3.org/2000/svg" viewBox="0 0 17.89 37.48"><g id="a"/><g id="b"><g id="c"><path d="M1.5,13.86c2.39,0,4.72-.03,7.05,0,2.2,.03,4.41,.15,6.61,.18,2.11,.02,1.94-.05,1.47,2.01-.32,1.39-.11,2.9-.06,4.36,.05,1.58,.17,3.17,.31,4.75,.22,2.44,.52,4.87,.74,7.3,.13,1.41,.2,2.83,.26,4.25,.04,.95-.65,.78-1.23,.7-1.27-.17-2.53-.48-3.8-.52-2.76-.08-5.53-.07-8.29,0-.91,.02-1.8,.34-2.71,.48-.37,.06-.87,.13-1.1-.05-.2-.17-.15-.69-.15-1.05,0-1.23,.08-2.46,.06-3.69-.03-1.61-.13-3.22-.18-4.83-.13-3.97-.09-7.97-.45-11.92-.2-2.16,.39-4.15,.76-6.15,.38-2.02,1.33-4.01,2.39-5.8,.76-1.28,2.06-2.28,3.24-3.26,.95-.79,2.07-.74,3.27-.32,2.74,.98,4.15,2.96,4.67,5.72,.06,.31,.33,.62,.3,.9-.05,.37-.3,.71-.47,1.06-.36-.17-.93-.26-1.05-.53-.3-.69-.39-1.47-.57-2.22-.48-2.06-1.9-3.2-3.85-3.63-1.39-.3-2.43,.63-3.25,1.57-2.2,2.54-3.47,5.51-3.83,8.87-.03,.29-.13,.57-.16,.86-.03,.28,0,.57,0,.95Zm.26,.88c2.55,.02,5.11,.03,7.66,.05,1.77,.02,3.55,.09,5.32,.06,.77-.01,1.01,.18,.98,1-.04,1.33-.01,2.66-.01,3.99h.08l.41-5.25c.19,.12,.14,.06,.09,.06-4.61-.07-9.22-.14-13.82-.19-.23,0-.46,.19-.69,.29-.62-.21-.79-.63-.71-1.28,.08-.62,.02-1.25,.02-1.88h-.35v9.25c.16-1.66,.17-3.33,.16-5,0-.62,.17-1.07,.88-1.11Zm13.57,.66c-2.46,0-4.61,.02-6.77,0-1.99-.03-3.99-.14-5.98-.14-.86,0-1.4,.4-1.31,1.44,.13,1.43,.16,2.88,.21,4.32,.15,4.18,.29,8.36,.43,12.53,.02,.71,0,1.41,0,2.15,1.13-.13,2.18-.36,3.22-.35,3.01,0,6.02,.11,9.03,.17,.7,.01,1.41,0,2.2,0-.1-1.52-.18-2.87-.29-4.22-.24-2.95-.57-5.89-.73-8.84-.12-2.25-.02-4.52-.02-7.05ZM1.04,24.74v12.1c5.47-1.03,10.81-.55,16.25-.15l-.27-3.7c-.13,.76-.09,1.52-.15,2.28-.02,.27-.19,.7-.38,.76-.54,.16-1.14,.25-1.71,.23-2.13-.08-4.25-.3-6.38-.3-2.09,0-4.18,.19-6.27,.38-.63,.06-.77-.25-.78-.67-.05-2.06-.04-4.13-.09-6.19-.05-1.74-.16-3.48-.23-4.75ZM13.75,7.36l.36-.11-1.23-3.89-.23,.08,1.09,3.93Zm2.31,14.01v5.37h.23l-.23-5.37ZM9.49,.99c-1.04-.63-1.79-.59-2.7,.18l2.7-.18Z"/></g></g></svg>