<?xml version="1.0" encoding="UTF-8"?><svg xmlns="http://www.w3.org/2000/svg" viewBox="0 0 21.59 38.44"><g id="a"/><g id="b"><g id="c"><g><path d="M.69,24.08c0-3.51,.01-7.02-.02-10.52,0-.36-.22-.75-.42-1.08-.37-.6-.35-1.27,.25-1.48,.74-.26,.74-.77,.83-1.3C2.05,5.48,4.17,2.03,8.17,.63c3.52-1.23,6.48-.84,8.98,2.79,1.53,2.22,1.97,4.76,2.47,7.33,.25,1.26-.23,2.69,.8,3.81,.13,.15,.1,.62-.04,.82-.74,1.11-.6,2.33-.54,3.54,.06,1.3,.11,2.6,.17,3.89,.21,4.28,.43,8.56,.66,12.84,.01,.21,.13,.54,.28,.6,.65,.23,.81,.72,.44,1.17-.42,.51-.82,1.25-1.75,.96-.49-.15-1-.32-1.51-.35-3.17-.16-6.34-.31-9.51-.41-.97-.03-1.94,.15-2.9,.15-.82,0-1.64-.14-2.46-.18-.39-.02-.8-.01-1.18,.09-.78,.21-1.1-.2-1.17-.84-.12-1.18-.21-2.36-.23-3.54-.03-3.07-.01-6.15-.01-9.22ZM18.28,8.02c-.44-2.31-1.6-4.21-3.26-5.85-.59-.36-1.14-.91-1.78-1.05-2.46-.55-4.75-.37-6.91,1.28-2.53,1.94-3.85,4.47-4.31,7.5-.14,.91-.16,1.69-1.41,1.73,1.25,.89,.47,2.1,.8,3.05,.47-2.25,.82-2.54,2.71-2.29,4.43,.59,8.86,1.14,13.29,1.74,.79,.11,1.53,.28,1.54,1.4,.02,2.71,.12,5.41,.2,8.12,.07,2.24,.12,4.48,.23,6.71,.09,1.83,.27,3.66,.41,5.48,.05,.65-.21,1.05-.9,1.07-.61,.02-1.23,.03-1.84,0-3.28-.14-6.55-.31-9.82-.43-1.46-.05-2.92-.02-4.38,0-.71,0-1.05-.3-1.09-1.02-.03-.55-.17-1.1-.26-1.65l-.14,.02,.27,3.09c1.73,0,3.44-.04,5.14,0,3.5,.11,7,.28,10.49,.42,.83,.03,1.66,.06,2.48,.06,.36,0,.71-.08,1.02-.11-.31-.54-.69-.89-.71-1.26-.19-2.91-.34-5.82-.45-8.73-.11-2.81-.15-5.63-.23-8.44,0-.11,.02-.23-.02-.32-.42-1.09-.13-2.11,.23-3.14,.08-.23,.07-.52,.03-.77-.13-.76-.3-1.52-.46-2.28-.29-1.44-.58-2.89-.88-4.33Zm.98,28.45c-.13-1.35-.26-2.37-.31-3.4-.16-3.16-.32-6.33-.44-9.49-.1-2.63-.14-5.27-.25-7.9-.01-.25-.32-.64-.55-.7-.62-.16-1.28-.14-1.91-.24-3.93-.56-7.86-1.15-11.79-1.7-1.43-.2-1.8,.18-1.8,1.64,0,5.9-.01,11.79,0,17.69,0,.97,.12,1.94,.23,2.9,.02,.19,.25,.51,.39,.52,1.17,.06,2.34,.07,3.52,.08,.65,0,1.3-.06,1.95-.03,3.56,.18,7.11,.39,10.96,.61ZM1.5,19.4h-.09v12.16h.09v-12.16Z"/><path d="M18.28,8.02c.15,1.63,.28,3.27,.45,4.9,.09,.87-.36,1.07-1.11,.98-3.58-.44-7.16-.85-10.73-1.31-1.31-.17-2.6-.43-3.9-.64-.61-.1-.88-.45-.79-1.05,.34-2.31,.86-4.56,2.53-6.34,.59-.62,1.13-1.32,1.83-1.8,2.62-1.81,5.39-2.01,8.26-.59,.06,.03,.14,0,.21,0,1.65,1.63,2.82,3.54,3.26,5.85Zm-.18,5.29c-.05-3.13-.45-5.97-2.01-8.51-.68-1.12-1.41-2.32-2.84-2.62-1.99-.42-3.99-.46-5.74,.76-.96,.67-1.89,1.47-2.61,2.39-1.35,1.71-2.05,3.7-1.99,5.96l15.19,2.03Z"/></g></g></g></svg>