<?xml version="1.0" encoding="UTF-8"?><svg xmlns="http://www.w3.org/2000/svg" viewBox="0 0 44.91 30.75"><g id="a"/><g id="b"><g id="c"><path d="M11.87,14.86c.89-.45,1.8-.93,2.73-1.37,1.49-.69,3-1.32,4.48-2.02,1.15-.55,2.29-1.13,3.4-1.76,2.44-1.38,4.89-2.76,7.28-4.22,1.44-.88,2.77-1.93,4.19-2.93-1.26-.64-2.45-1.24-3.65-1.85-.14-.07-.3-.13-.38-.24-.08-.11-.09-.28-.13-.42,.14-.02,.32-.09,.43-.04,1.07,.54,2.12,1.11,3.18,1.66,.27,.14,.56,.25,.84,.35,.11,.04,.26,.03,.36-.02,.22-.12,.34-.05,.47,.13,.09,.12,.21,.24,.35,.3,.85,.4,1.69,.8,2.55,1.18,1.05,.46,2.12,.89,3.17,1.35,.21,.09,.52,.2,.41,.48-.11,.27-.38,.2-.63,.08-1.18-.52-2.37-1.02-3.55-1.53-.66-.29-1.31-.61-1.97-.91-.1-.05-.22-.07-.35-.11-.27,2.67,.27,5.27,.49,7.94,.15,0,.31-.02,.45,0,.81,.1,1.63,.16,2.43,.33,.9,.19,1.63,.77,2.36,1.3,1.19,.86,2.29,1.82,3.15,3.03,.49,.69,.67,1.49,.85,2.29,.24,1.05,.12,2.11,.02,3.17-.11,1.16-.38,2.3-.82,3.36-.67,1.61-1.61,3.08-3.25,3.9-.96,.48-1.98,.83-3.07,.94-.44,.04-.89,.14-1.33,.13-.56-.02-1.13-.07-1.67-.22-.69-.2-1.41-.41-2.01-.79-1.26-.79-1.91-2.03-2.26-3.45-.29-1.19-.28-2.37,.11-3.59-.14,0-.25,0-.36,0-.78-.02-1.56-.06-2.34-.06-.57,0-1.14,.08-1.7,.05-.8-.05-1.59-.18-2.38-.25-1.59-.16-3.15-.58-4.78-.54-.61,.02-1.23-.15-1.85-.23-.21-.03-.41-.05-.67-.09,.05,.26,.14,.5,.14,.75,.07,1.67-.07,3.31-.97,4.77-.47,.76-1.07,1.44-1.56,2.19-.82,1.23-1.91,2.04-3.38,2.34-.49,.1-.95,.32-1.44,.42-.78,.16-1.55,.1-2.34-.05-.93-.18-1.8-.49-2.63-.94-1.17-.65-2.18-1.46-2.81-2.69-.71-1.39-1.13-2.85-1.32-4.38-.18-1.51-.17-3.02,.14-4.51,.22-1.04,.69-1.97,1.31-2.85,.69-.97,1.52-1.77,2.46-2.46,.38-.28,.92-.37,1.41-.49,1.37-.34,2.68-.11,3.91,.56,.55,.3,1.11,.61,1.61,.99,.34,.26,.57,.64,.92,1.04ZM34.55,2.8c-.09,.05-.12,.06-.15,.08-.81,.61-1.62,1.21-2.43,1.82-1.51,1.13-3.18,2-4.8,2.94-1.64,.95-3.29,1.91-4.94,2.85-.75,.43-1.51,.87-2.29,1.24-1.01,.47-2.06,.85-3.06,1.33-1.63,.77-3.24,1.59-4.87,2.39-.23,.11-.47,.2-.69,.34-.71,.46-1.41,.93-2.11,1.41-.69,.47-1.38,.94-2.08,1.42,.3,.07,.56,.07,.81,.07,.96,.02,1.92,.02,2.88,.08,1,.06,1.99,.19,2.99,.27,.4,.03,.77,.05,1.17,.18,1.56,.54,3.19,.76,4.84,.83,.7,.03,1.41,.14,2.11,.23,1.15,.15,2.3,.37,3.45,.46,1.25,.09,2.5,.03,3.75,.09,1.9,.1,3.75-.35,5.64-.37,.21,0,.25-.11,.25-.29-.03-.59-.08-1.18-.07-1.77,.03-1.31,.11-2.63,.13-3.94,.03-1.75-.02-3.49-.27-5.23-.12-.8-.18-1.62-.23-2.43-.06-1.01-.1-2.03-.13-3.05,0-.3,.05-.6,.09-.95ZM11.32,15.05c-.23-.29-.39-.59-.64-.78-1.24-1.01-2.6-1.71-4.26-1.57-.9,.07-1.76,.18-2.5,.84-1.15,1.03-2.2,2.12-2.79,3.58-.3,.75-.49,1.51-.55,2.31-.09,1.28-.1,2.55,.13,3.81,.11,.61,.29,1.2,.47,1.8,.31,1.07,.8,2.06,1.59,2.87,.98,1.01,2.22,1.62,3.55,2,.74,.22,1.51,.28,2.29,.26,.58-.01,1.07-.24,1.6-.38,1.09-.29,2.14-.66,2.87-1.6,.29-.38,.58-.77,.87-1.15,.9-1.2,1.79-2.39,1.96-3.96,.1-.92,.24-1.82-.06-2.72-.05-.15-.16-.33-.29-.38-.98-.38-2.02-.44-3.05-.51-.62-.05-1.24-.12-1.87-.15-.8-.04-1.59-.05-2.39-.07-.41,0-.83-.01-1.24,0-.31,0-.64-.03-.94,.05-.27,.07-.45-.03-.5-.23-.03-.12,.12-.38,.24-.42,.78-.25,1.38-.78,2.03-1.24,1.13-.79,2.3-1.54,3.48-2.33Zm24.19-3.52c0,1.88,0,3.66,0,5.44,0,.73,0,1.47,.01,2.2,0,.48,.05,.97,.07,1.45,0,.32-.13,.42-.38,.41-.7,0-1.41-.01-2.11,.04-.56,.04-1.11,.2-1.67,.23-.33,.02-.47,.15-.53,.44-.16,.74-.27,1.47-.15,2.23,.15,.95,.41,1.85,.94,2.66,.96,1.46,2.43,1.98,4.06,2.15,.68,.07,1.39-.03,2.08-.13,1-.15,1.96-.48,2.84-.98,1.3-.73,2.08-1.95,2.7-3.24,.55-1.15,.86-2.39,.92-3.66,.04-.89,.08-1.8-.02-2.69-.08-.78-.3-1.56-.77-2.23-.74-1.04-1.68-1.88-2.69-2.65-1.21-.93-2.49-1.69-4.08-1.71-.37,0-.74,.02-1.21,.04Zm-1.5-8.67c.07-.05,.13-.12,.21-.15,.14-.07,.28-.11,.43-.17,.03,.13,.09,.26,.09,.39,0,.42-.08,.85-.06,1.27,.05,1.14,.12,2.28,.21,3.42,.1,1.22,.29,2.43,.34,3.65,.06,1.45,.01,2.91,.01,4.37,0,1.32,0,2.65,0,3.97,0,.33,0,.65,0,.95l-2.18,.16v.04h2.32c-.02-.25-.07-.52-.07-.78,0-.98,0-1.96,0-2.94,0-.68,0-1.35,.01-2.03,0-1.1,0-2.2,.03-3.3,0-.13,.14-.36,.24-.37,.46-.05,.94-.06,1.4-.04,.42,.02,.83,.1,1.25,.15-.11-.07-.23-.11-.34-.13-.72-.14-1.43-.26-2.17-.15-.29,.04-.43-.07-.42-.4,.01-.33-.04-.66-.08-.98-.11-.98-.25-1.96-.34-2.94-.06-.67-.09-1.35-.09-2.02,0-.7,.04-1.41,.06-2.24l6.39,2.82,.05-.09c-.07-.05-.14-.12-.22-.15-1.07-.46-2.15-.9-3.22-1.37-.85-.37-1.68-.76-2.52-1.16-.2-.1-.38-.25-.57-.37-.15,0-.36,.04-.54,0-.32-.1-.63-.24-.94-.39-1.03-.53-2.06-1.06-3.08-1.6-.05-.03-.11-.04-.16-.05,.07,.12,.16,.19,.26,.24,1.17,.59,2.35,1.17,3.52,1.75,.42,.21,.44,.25,.17,.64ZM11.73,15.05c-2.02,1.32-3.91,2.72-5.96,3.96h3.38c-.26-.05-.53-.1-.8-.1-.47-.01-.94,0-1.41-.01-.08,0-.19-.07-.21-.13-.02-.06,.04-.18,.11-.22,.48-.36,.96-.72,1.46-1.06,.6-.41,1.21-.81,1.82-1.2,.51-.32,1.03-.64,1.56-.93,.71-.38,1.44-.73,2.16-1.09-.76,.2-1.39,.74-2.11,.8Zm31.72,9.77c-.9,1.82-2.25,3.11-4.22,3.72-1.9,.59-3.78,.73-5.67-.02,3.02,1.51,8.49,.21,9.89-3.69ZM3.43,28.76l-.05,.14c.48,.26,.95,.55,1.44,.79,.49,.23,.99,.45,1.51,.59,.53,.14,1.08,.21,1.63,.23,.55,.01,1.11-.03,1.64-.14,.52-.11,1.02-.32,1.54-.49,.67-.21,1.17-.48,1.42-.79-3.11,1.77-6.15,1.79-9.12-.32Zm12.27-9.08c.12,.18,.28,.35,.36,.55,.38,1.03,.21,2.07,.05,3.11-.2,1.33-.88,2.43-1.7,3.47-.35,.44-.66,.91-.99,1.37l.07,.05c.28-.38,.58-.76,.85-1.16,.48-.72,1.01-1.42,1.39-2.19,.29-.6,.41-1.29,.53-1.95,.15-.81,.17-1.64-.03-2.46-.03-.13-.08-.3-.02-.39,.06-.09,.24-.1,.36-.15l-.86-.24Zm28.89,1.09c.07-1.33,.19-2.67-.36-3.94,.4,1.29,.39,2.62,.36,3.94Zm-32.19-1.56l2.78,.33c-.83-.49-1.82-.19-2.78-.33Zm5.25,.9v.09l2.44,.16v-.07l-2.44-.18Zm13.34,.95h-2.12c.53,.05,1.06,.04,1.59,.06,.1,0,.2,.13,.31,.19,.01,0,.03,0,.05,.01l.18-.26Zm-8.95-10.7l-.04-.09-1.39,.81,.04,.07,1.39-.79ZM2.91,14.2l-.07-.07-.84,.82-.04-.04,.95-.71Zm41.69,6.87h-.07l-.25,1.3h.08l.24-1.3Z"/></g></g></svg>