<?xml version="1.0" encoding="UTF-8"?><svg xmlns="http://www.w3.org/2000/svg" viewBox="0 0 18.3 50.26"><g id="a"/><g id="b"><g id="c"><g><path d="M3.21,29.97c-.15,.1-.29,.22-.45,.3-.29,.15-.49,.02-.5-.31-.03-.69,.15-1.36,.31-2.02,.24-.98,.47-1.97,.68-2.96,.16-.74,.31-1.48,.44-2.23,.11-.63,.18-1.27,.26-1.91,.09-.72,.18-1.45,.28-2.17,.11-.82,.23-1.64,.36-2.45,.14-.86,.28-1.72,.47-2.57,.22-.95,.45-1.9,.75-2.82,.2-.63,.68-.99,1.39-1.01,.76-.01,1.56-.59,1.79-1.3,.05-.16,.06-.38-.02-.53-.66-1.29-1.02-2.68-1.39-4.06-.17-.64,.04-1.31,.28-1.92,.29-.75,.72-1.42,1.43-1.88,.23-.15,.46-.2,.74-.11,.5,.16,.88,.44,1.12,.93,.29,.57,.39,1.18,.43,1.81,.05,.87,.11,1.74,.11,2.61,0,.75-.04,1.5-.32,2.22-.13,.33,.14,.91,.47,1.06,.52,.23,1.05,.42,1.56,.67,.33,.16,.67,.36,.92,.63,.2,.23,.33,.56,.39,.87,.28,1.31,.54,2.63,.77,3.94,.23,1.3,.44,2.61,.64,3.92,.18,1.21,.28,2.44,.49,3.65,.19,1.07,.45,2.14,.72,3.19,.2,.78,.47,1.54,.72,2.3,.07,.2,.06,.41-.12,.51-.11,.05-.32-.01-.43-.09-.16-.12-.28-.3-.41-.45-.02,.07-.05,.16-.08,.25-.1,.27-.31,.36-.58,.24-.59-.26-.71-.92-.25-1.38,.22-.21,.21-.44-.05-.62-.11-.08-.23-.15-.36-.17-.53-.1-.69-.75-.36-1.09,.45-.45,.36-.94,.22-1.41-.27-.91-.33-1.85-.45-2.78-.16-1.26-.38-2.51-.78-3.73-.32-.97-.56-1.97-.85-2.95-.07-.25-.19-.49-.3-.76-.34,.61-.32,1.24-.24,1.88,.08,.65,.13,1.3,.19,1.96,.08,.83,.14,1.67,.23,2.5,.07,.7,.15,1.4,.24,2.09,.15,1.12,.27,2.25,.47,3.37,.25,1.39,.23,2.79,.24,4.19,0,.82,.08,1.64,.1,2.46,.02,.71,0,1.43,0,2.14,0,1.46,0,2.93,0,4.39,0,.49,.04,.99,.05,1.48,0,.24-.05,.48-.04,.72,.04,1.22,.11,2.44,.15,3.66,.02,.6-.02,1.21,.02,1.81,.03,.47,.12,.93,.24,1.38,.05,.19,.2,.38,.35,.52,.28,.27,.63,.18,.81-.17,.15-.3,.31-.6,.46-.9,.04-.07,.09-.16,.16-.2,.11-.06,.25-.11,.37-.09,.07,.01,.14,.17,.17,.27,.03,.12,.02,.24,.02,.35,.13-.02,.29-.08,.41-.04,.13,.05,.25,.18,.33,.3,.11,.17,.1,.34-.1,.46-.12,.07-.21,.18-.34,.28,.38,.35,.6,.74,.7,1.21,.1,.45-.02,.58-.46,.5-.34-.07-.63-.2-.89-.44-.18-.17-.57-.14-.8,.13-.58,.69-1.38,.69-2.11,.54-.77-.16-1.51-.55-1.68-1.46-.08-.42-.09-.85-.09-1.27-.01-.98-.03-1.96,0-2.94,.04-1.23,.11-2.46,.17-3.69,.05-.94,.12-1.89,.17-2.83,.06-1.13,.1-2.26,.18-3.39,.08-1.23,.2-2.46,.28-3.69,.02-.33,0-.66-.05-1-.06,.12-.14,.22-.19,.35-.11,.28-.29,.43-.59,.49-.4,.08-.51,.03-.63-.36-.04-.14-.11-.28-.19-.48-.13,.15-.22,.25-.31,.36-.04,.05-.06,.12-.1,.17-.16,.17-.32,.41-.6,.35-.28-.06-.25-.36-.31-.56-.07-.22-.1-.45-.17-.67-.05-.14-.14-.25-.21-.38h-.1c-.07,.35-.15,.69-.21,1.03-.19,1.04-.4,2.08-.57,3.13-.11,.7-.17,1.41-.25,2.12-.08,.67-.15,1.34-.23,2.01-.08,.72-.15,1.44-.24,2.15-.04,.35-.11,.7-.18,1.05-.28,1.3-.57,2.6-.86,3.89-.17,.74-.32,1.47-.54,2.19-.12,.4-.32,.78-.54,1.14-.26,.43-.82,.55-1.3,.35-.17-.07-.36-.15-.55-.16-.33-.02-.49,.23-.62,.49-.13,.28-.28,.52-.57,.66-.27,.13-.44,.04-.59-.18-.1-.14-.18-.3-.28-.44-.2-.27-.48-.25-.67,.02-.05,.07-.08,.17-.15,.21-.1,.06-.24,.11-.34,.08-.07-.02-.17-.18-.15-.27,.06-.32,.16-.62,.23-.91-.05,.02-.17,.06-.3,.1-.34,.1-.54,.03-.65-.22-.1-.22,.04-.53,.32-.66,.22-.1,.45-.16,.69-.24-.5-.25-.57-.44-.43-.92,.07-.25,.23-.31,.43-.35,.21-.05,.39,.02,.52,.22,.18,.27,.36,.55,.58,.79,.32,.35,.9,.37,1.27,.09,.1-.08,.21-.14,.31-.2,.32-.2,.43-.53,.52-.87,.23-.93,.48-1.85,.68-2.79,.22-.98,.4-1.97,.6-2.95,.1-.49,.2-.98,.29-1.46,.27-1.39,.54-2.78,.82-4.17,.11-.56,.24-1.12,.36-1.68,.22-.99,.48-1.97,.66-2.97,.12-.66,.14-1.34,.19-2.02,.06-.71,.12-1.42,.17-2.13,.01-.19,0-.39,0-.58,0-1.29-.02-2.59,0-3.88,.02-1.04,.1-2.08,.17-3.12,.05-.67,.16-1.34,.21-2.01,.05-.64,.21-1.31-.17-1.91-.32-.51-.62-.56-1.02-.17-.18,.18-.34,.39-.46,.62-.42,.81-.7,1.65-.79,2.57-.04,.47-.19,.94-.29,1.4-.27,1.24-.53,2.49-.81,3.73-.22,.94-.5,1.87-.7,2.81-.21,.97-.35,1.96-.51,2.94-.03,.15-.04,.3-.06,.46-.03,.3,.06,.54,.35,.7,.27,.16,.37,.45,.29,.73-.16,.52,.13,.82,.48,1.1,.41,.32,.51,.89,.22,1.3-.24,.33-.66,.3-.84-.07-.08-.16-.13-.34-.21-.5-.14-.26-.23-.27-.44-.07-.25,.24-.51,.27-.73,.11-.17-.13-.22-.45-.06-.71,.1-.16,.27-.26,.4-.4,.09-.1,.17-.21,.25-.31l-.09-.04ZM7.97,4.61l.46,1.58,.09-.03-.54-1.58c-.01-.09-.03-.17-.03-.26-.02-.48-.09-.96-.03-1.42,.05-.45,.24-.89,.36-1.33-.46,.97-.77,1.96-.32,3.03Zm-3.91,25.72c.17,.19,.32,.4,.51,.57,.26,.22,.35,.52,.19,.79-.05,.08-.16,.18-.23,.18-.07,0-.17-.11-.22-.19-.1-.16-.18-.34-.26-.51-.33-.42-.38-.42-.77-.09-.08,.07-.24,.06-.36,.09,0-.12-.02-.25,.02-.37,.03-.08,.13-.14,.21-.18,.43-.21,.54-.59,.27-.97-.11-.16-.23-.19-.36,0-.06,.09-.14,.19-.22,.26-.14,.13-.26,.09-.27-.11,0-.15,.02-.3,.05-.45,.22-1.07,.44-2.13,.66-3.19,.1-.47,.24-.93,.32-1.4,.14-.77,.27-1.54,.39-2.32,.1-.61,.18-1.23,.26-1.85,.07-.55,.14-1.1,.22-1.66,.06-.44,.13-.87,.19-1.31,.07-.5,.11-1.01,.2-1.51,.14-.82,.31-1.63,.47-2.45,.21-.82,.41-1.65,.62-2.47,.17-.63,.69-1.06,1.22-1.12,.36-.04,.73-.11,1.05-.26,.73-.34,1.26-1.08,1.05-2.06,0-.04-.04-.08-.06-.11-.07-.11-.16-.21-.22-.32-.07-.13-.13-.27-.19-.4l-.06,.03c.12,.28,.26,.55,.36,.84,.07,.22,.17,.49,.11,.69-.25,.8-.83,1.43-1.83,1.49-.65,.04-1.17,.3-1.4,1.01-.25,.78-.44,1.58-.64,2.38-.02,.1,.01,.21,.02,.31-.03,.03-.08,.06-.09,.1-.37,1.19-.44,2.43-.64,3.64-.15,.96-.23,1.92-.37,2.88-.17,1.2-.34,2.41-.58,3.6-.28,1.41-.64,2.81-.94,4.22-.13,.59-.2,1.19-.27,1.79-.03,.24,.08,.29,.3,.17,.07-.04,.13-.12,.2-.16,.11-.07,.24-.13,.36-.19,.05,.14,.14,.28,.12,.41-.01,.12-.13,.23-.22,.33-.14,.16-.31,.28-.42,.45-.05,.07-.02,.29,.04,.33,.09,.06,.31,.08,.37,.02,.27-.29,.55-.29,.86-.1,.1,.26,.19,.52,.32,.77,.03,.05,.24,.08,.3,.03,.2-.16,.34-.36,.27-.64-.12-.48-.59-.65-.88-.98,0-.31,.04-.62,.01-.93,0-.14-.08-.33-.19-.39-.39-.22-.49-.56-.43-.96,.17-1.14,.34-2.27,.56-3.4,.2-.97,.48-1.93,.71-2.89,.22-.94,.42-1.88,.64-2.82,.02-.1,.04-.2,.06-.29-.26,.86-.44,1.74-.65,2.62-.18,.77-.41,1.53-.59,2.3-.19,.85-.33,1.71-.52,2.56-.16,.73-.3,1.46-.29,2.22,0,.31,.1,.53,.37,.69,.19,.12,.28,.3,.2,.52-.12,.29-.05,.54,.13,.77Zm11.76-4.36c.06,.02,.13,.03,.19,.05,.29,.08,.44,.3,.53,.56,.08,.23-.08,.36-.25,.49-.22,.18-.24,.49-.06,.73-.18-.41,.06-.59,.27-.79,.06-.06,.15-.13,.16-.21,.07-.48-.36-.9-.84-.84-.37-.48-.36-.55,.09-1.05,.06-.07,.12-.17,.12-.25-.02-.38-.04-.77-.11-1.14-.1-.53-.32-1.06-.34-1.59-.03-1.29-.31-2.53-.59-3.77-.24-1.08-.57-2.14-.88-3.2-.17-.59-.39-1.16-.6-1.73-.1-.29-.23-.32-.39-.08-.17,.25-.34,.52-.29,.85-.04,.31-.12,.61-.1,.92,.04,.68,.14,1.36,.21,2.04,.05,.54,.08,1.08,.13,1.62,.07,.68,.15,1.35,.22,2.03,.05,.44,.1,.88,.16,1.31,.06,.5,.13,1.01,.19,1.51,.05,.43,.09,.86,.16,1.29,.11,.74,.33,1.47,.36,2.21,.07,1.75,.05,3.5,.08,5.25,.02,1.28,.08,2.56,.11,3.83,.02,1.01,.01,2.03,0,3.05,0,.48-.06,.97-.05,1.45,.02,.82,.08,1.64,.11,2.46,.05,1.3,.07,2.59,.12,3.89,.02,.55,.22,1.03,.65,1.4,.36,.31,.95,.18,1.16-.25,.12-.24,.22-.49,.35-.73,.05-.09,.17-.15,.25-.23,.02,.09,.02,.19,.05,.28,.03,.12,.06,.26,.14,.33,.04,.04,.19-.05,.3-.08,.08-.02,.15-.05,.25-.08-.01,.16-.02,.28-.03,.4-.08,.05-.22,.1-.23,.16-.02,.16-.02,.35,.06,.49,.14,.27,.35,.49,.49,.76,.14,.28,.09,.33-.23,.4,.09,.02,.17,.06,.25,.05,.06,0,.16-.11,.15-.13-.14-.34-.24-.7-.44-1-.21-.31-.27-.42-.04-.73,.09-.09,.24-.17,.25-.26,0-.2-.3-.3-.47-.19-.07,.04-.19,.09-.23,.06-.06-.04-.09-.15-.1-.24-.02-.16,0-.33,0-.5l-.11-.04c-.1,.11-.22,.2-.29,.32-.15,.27-.28,.56-.42,.85-.17,.34-.34,.4-.73,.35-.46-.07-.68-.38-.77-.75-.12-.49-.21-1-.24-1.5-.06-1.42-.1-2.84-.12-4.27-.03-2.31-.04-4.62-.06-6.93-.01-1.42-.04-2.83-.06-4.25-.02-1.2-.03-2.4-.06-3.61,0-.28-.05-.56-.09-.83-.12-.66-.27-1.32-.36-1.98-.09-.66-.11-1.32-.19-1.98-.13-1.18-.28-2.36-.4-3.54-.06-.58-.06-1.16-.14-1.73-.14-.96-.29-1.92-.21-2.9,.09-.21,.16-.42,.26-.62,.04-.08,.12-.13,.19-.19,.06,.07,.15,.12,.18,.2,.25,.74,.52,1.48,.73,2.23,.32,1.13,.65,2.26,.89,3.4,.19,.89,.26,1.8,.38,2.71,.04,.27,.04,.54,.09,.8,.12,.58,.23,1.16,.39,1.73,.07,.28-.01,.47-.18,.66-.06,.07-.12,.15-.18,.23-.24,.35-.14,.66,.25,.83ZM6.08,15.13c.07-.09,.14-.17,.2-.27,.23-.42,.43-.86,.68-1.26,.23-.37,.79-.54,1.05-.35,.32,.24,.53,.56,.61,.95,.15,.68-.02,1.34-.08,2.01-.05,.58-.12,1.16-.16,1.75-.03,.39-.02,.78-.04,1.16-.05,.84-.15,1.67-.18,2.51-.03,1.07,.03,2.15-.01,3.22-.06,1.42-.15,2.85-.3,4.27-.09,.87-.33,1.73-.51,2.59-.15,.72-.32,1.44-.47,2.16-.13,.65-.23,1.3-.36,1.95-.22,1.11-.47,2.21-.69,3.31-.17,.82-.3,1.65-.48,2.48-.16,.76-.35,1.51-.53,2.26-.14,.58-.23,1.16-.42,1.72-.11,.34-.35,.64-.5,.9,.2-.1,.4-.29,.48-.61,.21-.86,.45-1.72,.65-2.58,.26-1.1,.5-2.2,.73-3.3,.27-1.29,.5-2.59,.76-3.88,.24-1.21,.51-2.41,.75-3.63,.22-1.13,.64-2.21,.72-3.37,.08-1.2,.23-2.4,.27-3.6,.05-1.4,0-2.8,0-4.2,0-.31,0-.62,.02-.93,.05-.63,.18-1.27,.15-1.89-.05-1.12,.19-2.21,.29-3.31,.05-.58,.05-1.15-.3-1.67-.39-.57-.88-.63-1.37-.15-.49,.49-.72,1.13-.96,1.75l-.53,2.41,.1,.02c.09-.51,.19-1.03,.28-1.54,.05-.3,.1-.59,.14-.89Zm6.77,21.85c.03-.09,.08-.18,.08-.27,.05-.77,.07-1.55,.13-2.32,.06-.85,.15-1.71,.22-2.56,.04-.43,.07-.87,.07-1.3,0-.41-.05-.82-.08-1.23l-.11-.02c-.09,.1-.19,.18-.26,.29-.13,.2-.22,.43-.37,.62-.1,.12-.27,.23-.41,.25-.09,0-.22-.16-.3-.27-.1-.14-.15-.31-.26-.44-.05-.06-.23-.09-.28-.05-.16,.14-.29,.33-.44,.48-.09,.09-.21,.16-.32,.24-.07-.12-.15-.22-.19-.35-.14-.36-.06-.81-.46-1.07-.19-.13-.36-.12-.48,.08-.05,.09-.09,.19-.11,.29-.1,.52-.21,1.05-.29,1.58-.16,1.01-.32,2.02-.47,3.04-.12,.78-.25,1.56-.34,2.34-.1,.85-.13,1.71-.25,2.55-.12,.91-.28,1.82-.45,2.72-.12,.64-.28,1.27-.42,1.91-.19,.85-.37,1.7-.59,2.54-.12,.47-.31,.92-.5,1.37-.22,.52-.44,.66-.98,.62-.12,0-.24-.06-.35-.11-.6-.25-1.08-.08-1.35,.52-.04,.09-.07,.18-.12,.26-.22,.36-.49,.36-.7,0-.21-.36-.47-.64-.95-.56-.05,0-.1-.03-.17-.04,0-.05,0-.1,.01-.13,.09-.19,.05-.37-.11-.46-.11-.06-.28-.02-.43,0-.07,0-.15,.06-.22,.05-.08-.01-.16-.06-.25-.1,.05-.08,.07-.18,.14-.23,.07-.06,.18-.07,.27-.1,.14-.05,.31-.07,.43-.16,.09-.07,.18-.21,.18-.32,0-.09-.12-.22-.22-.25-.23-.07-.39-.16-.33-.48-.15,.29-.07,.5,.16,.58,.11,.04,.2,.11,.3,.17-.09,.09-.16,.2-.26,.28-.06,.05-.17,.04-.24,.08-.17,.08-.34,.16-.49,.28-.05,.04-.06,.21-.02,.28,.04,.06,.18,.1,.26,.09,.16-.02,.31-.1,.47-.13,.08-.01,.24,.03,.25,.07,.03,.1,0,.22-.04,.32-.07,.15-.2,.26-.25,.41-.04,.11,.01,.24,.02,.36,.1-.07,.22-.12,.29-.21,.18-.26,.43-.36,.69-.18,.21,.15,.39,.37,.53,.59,.13,.21,.26,.26,.43,.11,.16-.14,.31-.31,.41-.5,.38-.7,.67-.75,1.34-.48,.61,.24,1.25-.03,1.45-.66,.26-.83,.51-1.67,.72-2.51,.49-1.93,.9-3.88,1.15-5.85,.13-1.01,.23-2.02,.35-3.03,.11-.93,.2-1.86,.33-2.78,.1-.74,.24-1.48,.37-2.21,.1-.57,.22-1.15,.35-1.71,.07-.3,.31-.37,.5-.14,.12,.14,.19,.35,.25,.53,.09,.31,.15,.64,.23,1.02,.16-.11,.26-.16,.32-.24,.13-.15,.24-.32,.38-.47,.09-.09,.22-.23,.31-.21,.11,.02,.21,.17,.28,.28,.08,.12,.1,.27,.17,.39,.04,.06,.12,.15,.17,.15,.24-.02,.47-.08,.59-.34,.08-.18,.18-.36,.29-.53,.09-.13,.21-.14,.28,.04,.03,.09,.06,.18,.06,.28,0,.48,.01,.96,0,1.44,0,.41-.03,.81-.06,1.22-.07,.87-.16,1.75-.23,2.62-.04,.56-.06,1.12-.09,1.68-.07,1.03-.14,2.06-.2,3.1-.05,.79-.07,1.59-.12,2.38-.05,.79-.15,1.58-.16,2.37-.02,1.09,.03,2.19,.05,3.29,0,.2,.04,.4,.09,.6,.12,.52,.49,.8,.93,1.06,.52,.3,1.07,.28,1.62,.27,.11,0,.22-.08,.38-.15-.29,.04-.53,.08-.77,.09-.57,.02-1.04-.22-1.51-.51-.36-.23-.52-.55-.58-.94-.04-.3-.06-.6-.06-.9,.01-1.45,.02-2.89,.06-4.33,.02-1.05,.07-2.11,.12-3.16,.01-.28,.05-.56,.06-.84,.03-.77,.06-1.54,.09-2.31Zm4.4-10.13c-.14-.46-.3-.9-.4-1.35-.24-1.15-.47-2.3-.68-3.46-.1-.56-.18-1.12-.26-1.68-.08-.51-.14-1.02-.22-1.54-.1-.65-.2-1.31-.31-1.96-.11-.7-.2-1.41-.33-2.11-.21-1.14-.46-2.27-.65-3.41-.12-.67-.36-1.21-1.02-1.49-.5-.21-.99-.45-1.5-.63-.79-.27-1.1-1.09-.88-1.84,.25-.85,.26-1.71,.26-2.58,0-.8-.09-1.6-.13-2.4-.04-.67-.28-1.26-.78-1.71-.22-.2-.58-.36-.88-.09-.32,.29-.63,.61-.86,.97-.54,.85-.77,1.77-.46,2.77,.19,.62,.36,1.26,.6,1.86,.18,.44,.16,.99,.63,1.3,.03,.37,.12,.75,.08,1.11-.03,.25-.24,.49-.39,.72-.39,.62-1,.88-1.68,.91-.6,.03-1.06,.39-1.19,.87-.25,.92-.48,1.85-.71,2.77-.11,.45-.21,.9-.29,1.35-.11,.62-.19,1.24-.27,1.86-.13,.91-.25,1.82-.37,2.74-.09,.64-.17,1.27-.26,1.91-.06,.43-.13,.85-.2,1.28,.23-.68,.42-1.36,.58-2.05,.23-.99,.43-1.98,.64-2.97,.13-.61,.26-1.22,.36-1.84,.16-1.01,.52-1.94,1.11-2.77,.41-.58,1.18-.71,1.62-.24,.34,.36,.56,.8,.53,1.3-.04,.8-.16,1.59-.22,2.38-.09,1.3-.2,2.6-.23,3.9-.04,1.61-.01,3.23-.01,4.84,0,.12-.01,.23-.02,.35-.05,.62-.09,1.23-.15,1.85-.1,.9-.17,1.8-.33,2.69-.18,.97-.45,1.92-.66,2.88-.18,.83-.33,1.67-.5,2.5-.2,.97-.41,1.93-.6,2.9-.17,.89-.3,1.8-.5,2.69-.28,1.27-.61,2.53-.91,3.79-.14,.59-.3,1.13-.86,1.49-.44,.29-.85,.59-1.4,.38-.33-.13-.65-.32-.97-.48-.05,.2-.08,.52-.52,.57,.45,.09,.55,.37,.54,.71,.65-.06,.87,.46,1.22,.91,.11-.17,.21-.28,.27-.42,.32-.76,.86-.99,1.63-.7,.58,.23,1,.05,1.18-.53,.29-.96,.59-1.92,.82-2.89,.29-1.24,.51-2.49,.77-3.74,.08-.39,.17-.77,.23-1.16,.1-.69,.17-1.38,.24-2.07,.08-.74,.15-1.47,.23-2.21,.06-.57,.13-1.14,.21-1.71,.07-.48,.17-.96,.25-1.44,.17-.95,.34-1.9,.53-2.85,.09-.44,.55-.56,.86-.25,.13,.13,.23,.31,.29,.48,.09,.27,.14,.55,.23,.9,.11-.18,.16-.31,.25-.39,.2-.17,.41-.4,.64-.42,.14-.02,.33,.29,.47,.47,.08,.11,.12,.25,.22,.45,.13-.15,.22-.25,.3-.36,.21-.27,.38-.57,.62-.81,.16-.16,.32-.08,.37,.15,.05,.18,.11,.37,.11,.56,0,.76,0,1.51-.06,2.27-.07,1.04-.2,2.07-.28,3.11-.08,.99-.12,1.99-.18,2.98-.06,1.13-.12,2.26-.18,3.39-.04,.69-.1,1.37-.1,2.06,0,1.59,.01,3.18,.06,4.78,0,.25,.17,.55,.36,.73,.58,.56,2,.88,2.63,.15,.12-.14,.32-.21,.49-.3,.38-.19,.71-.15,1.02,.16,.14,.14,.33,.22,.5,.33l.07-.08c-.12-.2-.2-.45-.36-.6-.29-.27-.43-.55-.28-.86l-.49-.47c-.06,.15-.13,.31-.19,.47-.21,.56-.9,.78-1.41,.46-.45-.28-.63-.74-.71-1.2-.1-.58-.11-1.17-.13-1.76-.02-.65,0-1.3-.01-1.95-.03-1.19-.08-2.38-.12-3.57-.02-.63-.04-1.26-.04-1.89,0-.98,.01-1.96,0-2.94-.03-1.63-.14-3.26-.1-4.89,.05-2.17-.16-4.3-.49-6.43-.11-.74-.2-1.48-.29-2.23-.09-.78-.16-1.55-.24-2.33-.11-1.09-.23-2.18-.35-3.27-.04-.33-.08-.67-.1-1-.05-.7,.02-1.39,.42-1.99,.19-.29,.52-.26,.66,.06,.19,.44,.4,.88,.53,1.33,.38,1.35,.76,2.71,1.09,4.07,.18,.73,.27,1.49,.38,2.24,.07,.5,.08,1,.16,1.5,.1,.58,.27,1.15,.37,1.74,.08,.44,.2,.91-.26,1.24-.04,.03-.05,.08-.08,.12-.15,.24-.09,.41,.19,.46,.39,.06,.59,.3,.75,.63,.18,.39,.07,.65-.24,.9-.23,.19-.2,.36,.07,.58,.18-.37,.13-.89,.67-1.03Zm.69,1.37c-.11-.42-.19-.8-.31-1.18-.22-.73-.49-1.45-.67-2.19-.2-.82-.33-1.66-.48-2.5-.11-.59-.2-1.17-.29-1.76-.1-.63-.18-1.27-.28-1.91-.12-.76-.24-1.51-.36-2.27-.14-.91-.28-1.82-.43-2.73-.13-.77-.27-1.55-.45-2.31-.12-.51-.14-1.09-.63-1.41-.45-.29-.94-.5-1.42-.74-.35-.18-.73-.3-1.05-.52-.45-.32-.36-.83-.3-1.3,.08-.66,.24-1.31,.24-1.97,0-.96-.13-1.93-.15-2.89-.01-.61-.18-1.15-.49-1.66-.23-.38-.91-.78-1.21-.68-.51,.17-.84,.55-1.1,1.01,.19-.18,.34-.39,.54-.56,.54-.44,.66-.43,1.16-.19,.48,.23,.72,.65,.83,1.12,.13,.59,.18,1.21,.24,1.82,.03,.27,.02,.54,.01,.82-.01,.84-.02,1.67-.06,2.51-.02,.44-.15,.87-.17,1.31-.02,.36,.17,.69,.49,.87,.3,.18,.65,.29,.97,.44,.42,.2,.85,.39,1.26,.6,.35,.18,.52,.5,.59,.87,.21,1.02,.43,2.05,.63,3.07,.13,.66,.26,1.31,.36,1.98,.1,.66,.15,1.33,.25,2,.09,.64,.24,1.26,.33,1.9,.13,.91,.2,1.83,.37,2.74,.18,1.01,.42,2.02,.68,3.02,.19,.76,.45,1.49,.67,2.24,.03,.11-.02,.24-.04,.41-.02-.02,.02,.02,.07,.05,.02,.01,.06,0,.18,0Zm-14.23,1.56c.21-.31,0-.53-.31-.75-.12-.08-.19-.29-.2-.45-.03-.35,0-.71,0-1.09-.26,.53-.51,1.85-.42,2.17,.17-.12,.23-.46,.51-.32,.18,.09,.3,.31,.42,.44Zm.82,1.9c.17-.22,.17-.38-.02-.56-.29-.28-.55-.58-.79-.85l-.18,.38c.62,.04,.71,.6,.99,1.03Zm12.26-3.89l.08,.04c.03-.08,.04-.17,.09-.24,.04-.07,.11-.13,.17-.19,.06,.07,.12,.13,.16,.21,.04,.07,.05,.15,.08,.23l.05-.02-.19-.77h-.11l-.33,.74Zm.37,21.67c-.25-.4-.46-.49-1.05-.07,.36-.14,.72-.33,1.05,.07Zm-15.79-3.22l.06-.07c-.1-.09-.2-.18-.31-.26,0,0-.1,.11-.18,.2l.43,.14Z"/><path d="M5.49,44.59c-.06-.08-.15-.16-.18-.25-.01-.03,.09-.11,.14-.17l.19,.3-.15,.11Z"/></g></g></g></svg>