<?xml version="1.0" encoding="UTF-8"?><svg xmlns="http://www.w3.org/2000/svg" viewBox="0 0 842.9 498.89"><g id="a"/><g id="b"><g id="c"><path d="M842.9,304.4c-2.49,.42-4.96,.93-7.46,1.23-5.05,.6-9.9-.2-14.47-2.49-1.96-.98-3.18-2.74-4.38-4.49-1.44-2.09-2.82-4.21-4.34-6.24-.7-.93-1.6-1.74-2.5-2.49-1.88-1.55-3.96-1.69-6.17-.68-1.83,.83-3.7,1.59-5.93,2.54-.2-1.39-.55-2.52-.5-3.63,.15-3.28,.24-6.59,.74-9.83,.7-4.49,1.82-8.92,2.64-13.39,.3-1.65,.27-3.36,.35-5.05,.09-2.1,.2-4.21,.17-6.32-.01-.89-.3-1.8-.59-2.66-2.4-7.02-6.34-13.21-10.32-19.39-1.23-1.91-2.39-3.89-3.38-5.93-.74-1.51-1.69-2.68-3.16-3.5-5.54-3.11-11.27-5.77-17.36-7.65-6.06-1.86-12.06-3.86-17.53-7.19-.86-.52-1.79-1-2.75-1.29-6.79-2.01-13.43-4.51-20.49-5.63-6.35-1.01-12.49-2.77-18.16-6.02-3.43-1.96-6.97-3.79-10.91-4.71-1.92-.45-3.39-1.73-4.61-3.36-7.06-9.41-13.54-19.19-18.96-29.66-2.71-5.24-5.58-10.39-8.29-15.63-1.16-2.25-2.2-4.57-3.1-6.93-1.88-4.88-4.96-9.01-7.91-13.23-.14-.19-.4-.3-.66-.5-3.53,1.01-7.08,2.07-10.66,3.02-1.79,.48-3.62,.98-5.45,1.09-1.99,.11-4.15,.19-5.99-.43-7.26-2.47-14.45-5.17-21.63-7.9-4.73-1.8-9.41-3.76-14.08-5.71-3.71-1.55-7.53-1.69-11.42-1.01-.48,.08-.99,.27-1.37,.56-3.45,2.57-6.87,5.17-10.3,7.76-1.21,.92-2.36,1.93-3.63,2.75-1.68,1.1-3.63,1.62-5.58,1.13-4.74-1.19-9.54-2.25-13.84-4.75-2.63-1.53-5.24-3.09-7.91-4.56-4.14-2.28-8.27-4.56-12.48-6.7-4.68-2.37-9.54-4.32-14.75-5.13-1.99-.31-4.05-.22-6.08-.23-4.9-.03-9.81,.27-14.69-.08-6.47-.46-12.96-.13-19.42-1.18-3.88-.63-7.96-.22-11.78,.96-2.9,.9-5.81,.93-8.75,.95-3.48,.03-4.06,.63-4.17,4.08-.25,7.87,.58,15.69,1.68,23.44,.69,4.82,2.47,9.47,3.35,14.27,.86,4.68,3.45,8.53,5.27,13.11,2.03-4.06,1.19-8.77,3.93-12.17,1.23,.07,1.31,.86,1.48,1.61,.57,2.56,1.15,5.1,2.69,7.32,1.18,1.7,1.24,1.84,3.31,1.19,2.09-.66,4.11-1.49,6.16-2.27,1.31-.5,2.61-1.04,3.77-1.51,.96,.82,.77,1.43,.28,1.99-2.78,3.24-4.55,7.1-6.55,10.81-.36,.66-.64,1.38-.84,2.11-.97,3.46,.37,5.41,3.96,5.96,5.37,.81,10.34-.34,15.04-2.91,3.04-1.66,6.09-3.29,9.07-5.05,1.37-.81,2.61-1.86,3.83-2.88,3.56-2.99,7.07-6.02,10.61-9.02,.38-.32,.82-.61,1.27-.83,7.92-3.84,16.14-6.39,25.06-6.27,3.62,.05,7.25-.24,10.88-.29,1.25-.02,2.56,.05,3.75,.4,2.76,.82,5.53,1.36,8.39,1.77,6.55,.95,12.38,3.8,17.65,7.76,1.4,1.05,2.84,1.78,4.8,1.44,.24-1.31,.46-2.62,.73-3.93,.39-1.9,1.51-2.34,3.1-1.23,.34,.24,.69,.53,.92,.87,2.3,3.52,5.51,6.45,6.94,10.54,.69,1.96,2.18,3.21,3.79,4.28,.62,.41,1.64,.44,2.43,.31,4.82-.78,9.59-1.5,14.13-3.64,5.64-2.65,11.56-4.69,17.36-6.98,.55-.22,1.13-.33,1.7-.49,1.98-.56,1.86-.48,2.43,1.49,.53,1.84,1.18,3.78,2.3,5.29,4.35,5.89,7.24,12.54,10.48,19.03,3.01,6.03,6.58,11.79,10.08,17.57,.79,1.31,2.23,2.26,3.48,3.24,.83,.65,1.12,1.17,.89,2.32-.46,2.31-.75,4.67-.82,7.03-.06,1.84-.81,2.79-2.51,3.25-2.11,.57-4.2,1.22-6.32,1.84-.08,.11-.23,.23-.26,.38-1.22,5.2-5.32,8.04-9.15,11.08-5.28,4.21-10.62,8.34-15.85,12.61-1.22,1-2.13,2.38-3.14,3.63-.88,1.08-.78,2.17,.15,3.18,3.21,3.48,6.39,6.98,9.66,10.4,.86,.9,1.97,1.61,3.07,2.21,4.75,2.58,8.78,6.02,12.02,10.31,2.03,2.69,3.75,5.62,5.68,8.4,1.01,1.45,2.06,2.89,3.24,4.2,1.53,1.71,3.77,1.22,4.54-1,.83-2.37,.33-4.64-.82-6.83-.98-1.86-.94-1.88-.44-3.82,1.87-.36,1.93,1.52,3.16,2.61,0-.91-.16-1.63,.05-2.23,.19-.53,.75-1.26,1.2-1.29,.44-.03,1.14,.6,1.37,1.1,.41,.88,.56,1.89,.96,3.34,.52-.96,.78-1.51,1.12-2.02,.85-1.28,2.22-1.25,3.04,.06,.69,1.09,.47,2.63-.54,3.43-.39,.31-.88,.5-1.31,.76-1.32,.82-2,1.9-1.89,3.56,.09,1.32-.05,2.69-.32,3.99-.66,3.16-5.79,5.92-8.44,5.84-1.86-.06-3.07-1.04-4.15-2.49-4.94-6.63-10.1-13.11-14.19-20.34-.06-.11-.28-.14-.42-.21q-.42,2.51-3.25,2.06c0,.59,.02,1.17,0,1.74-.02,.58-.09,1.16-.14,1.77-2.16,1.03-2.92-1.31-4.92-1.79,.58,1.03,.93,1.82,1.44,2.5,4.37,5.78,7.61,12.15,10.21,18.88,.3,.77,.81,1.46,1.26,2.17,.22,.35,.61,.62,.78,.99,.37,.79,1.35,1.68,.4,2.45-.46,.38-1.52,.06-2.3,0-.4-.04-.79-.22-1.37-.38-.15,1.22,.47,2,.98,2.83,.52,.85,.76,1.76-.03,2.53-.94,.92-1.91,.4-2.72-.27-.64-.52-1.15-1.2-1.98-2.09-.16,1.48-.35,2.79-2.1,2.49-1.25-.22-1.54-.71-1.74-3.17-.8-.56-1.76-1-2.35-1.73-.39-.48-.53-1.47-.33-2.07,.31-.89,1.22-.66,1.97-.42,1.11,.37,2.19,.85,3.41,.24,1.38-.68,1.77-1.37,1.27-2.81-.27-.8-.6-1.59-1.01-2.32-3.03-5.46-6.06-10.92-9.14-16.36-1.62-2.87-3.42-5.64-5.01-8.52-2.11-3.82-4.9-7.08-8.04-10.05-1.61-1.52-2.16-1.52-3.85-.04-4.14,3.62-8.11,7.4-11.65,11.62-2.55,3.03-5.3,5.9-7.79,8.97-1.69,2.09-3.09,4.42-4.62,6.65-.48,.69-.37,1.29-.04,2.09,1.2,2.87,3.18,4.91,5.96,6.26,1.21,.59,2.3,1.47,3.55,1.95,1.31,.51,2.74,1,4.1,.98,1.43-.03,2.18,.54,2.89,1.59,1.13,1.68,2.23,3.39,3.5,4.96,1.32,1.62,2.82,3.09,4.52,4.55,.38-4.56,.74-9.02,.34-13.39,1.34-.53,1.53,.07,1.79,.93,1.27,4.11,2.63,8.2,3.97,12.29,.13,.39,.3,.76,.55,1.38,1.52-.75,2.92-1.48,4.35-2.13,.84-.38,1.71-.78,2.61-.9,1.99-.27,2.74,.69,1.79,2.48-1.98,3.72-4.06,7.39-6.22,11.01-1.27,2.12-1.37,2.82-.08,4.77,2.42,3.65,4.78,7.33,7.21,10.97,1.21,1.82,2.55,3.57,3.77,5.39,2.59,3.9,2.43,4.39-1.66,6.31-1.53,.72-2.97,1.64-4.54,2.24-1.38,.53-1.98,2.11-3.77,2.22-1.43,.09-2.81,1.07-4.19,1.71-2.03,.94-2.16,1.1-3.32,3.65,.79,.68,1.55,1.67,2.55,2.13,3.15,1.46,5.23,3.97,6.83,6.86,.97,1.75,1.42,3.78,2.11,5.68,.42,1.16,.85,2.31,1.48,4.01,1.52-3.29,2.59-6.36,6.64-6.64,.06,.63,.19,1.25,.16,1.86-.14,2.69-.24,5.39-.54,8.07-.24,2.17-.66,4.33-1.14,6.47-.38,1.69-.22,3.03,1.16,4.31,1.79,1.66,1.83,2.64,.59,4.67-1.87,3.07-2.87,6.46-3.76,9.9-.27,1.06-.49,2.14-.7,3.21-.39,1.96-.77,3.88-.33,5.95,.33,1.53,.06,3.19,.06,4.79-.02,4.69,1.27,9.17,2.2,13.71,.66,3.21,1.21,6.45,1.87,9.66,.41,1.98,.75,4.01,1.48,5.87,1.2,3.06,2.68,6.02,4.09,8.99,1.11,2.34,2.88,3.73,5.48,4.43,3.83,1.03,7.43,2.7,10.68,5.06,1.91,1.38,3.88,2.7,5.87,3.97,2.58,1.65,4.95,3.52,7.07,5.74,1.57,1.65,2.29,1.53,3.59-.29,.64-.89,1.22-1.83,1.79-2.76,.65-1.05,1.62-1.49,2.79-1.35,1.07,.13,1.96,.71,2.21,1.81,.27,1.18-.48,1.9-1.47,2.37-.77,.36-1.56,.68-2.33,1.01l.3,.66c.63-.27,1.3-.47,1.89-.81,1.28-.73,2.59-.71,3.9-.22,1.7,.64,2.07,2.29,.8,3.58-.79,.8-1.74,1.35-2.95,1.14-.9-.16-1.81-.31-3.24-.56,1.11,.71,1.8,1.1,2.43,1.58,.53,.4,1.21,.82,1.42,1.39,.23,.61,.21,1.52-.1,2.07-.17,.31-1.23,.36-1.76,.17-1.17-.43-2.26-1.09-3.66-1.79-.07,.91-.13,1.68-.2,2.55-1.69,.45-2.84-.47-3.41-1.6-.57-1.13-.51-2.58-.69-3.64-5.33-3.91-10.56-7.73-16.14-11.81,.28,.94,.42,1.47,.6,1.99,.99,2.91-.11,5.35-1.94,7.46-1.66,1.91-6.17,1.71-8.14-.28-1-1.01-1.79-2.24-2.66-3.38-.66-.86-1.29-1.74-2.03-2.73-2.15,1.32-3.61,3.01-4.96,4.84-2.61,3.52-5.26,7.02-7.87,10.54-.7,.95-1.38,1.92-2,2.92-1.19,1.92-1.14,3.13,.48,4.74,1.25,1.24,2.1,2.63,2.54,4.3,.21,.82,.37,1.73-.53,2.29-.99,.61-1.81,.1-2.45-.62-.55-.63-1.01-1.34-1.47-2.05-.44-.69-.83-1.41-1.36-2.31l-1.35,2.12c-1.22,.21-2.57,.52-3.21-.77-.77-1.55,.89-2.35,1.52-3.5-.42-1.33-1.75-1.43-2.74-1.98-.7-.39-1.46-.89-.92-1.73,.25-.39,1.12-.4,1.72-.51,.22-.04,.49,.1,.73,.18,2.75,.86,2.73,.85,4.44-1.47,4.35-5.92,8.72-11.83,13.07-17.74,.3-.4,.53-.85,.93-1.5-2.2-3.02-4.45-6.03-7.79-8-3.12-1.84-6.54-3.3-9.36-5.52-5.57-4.41-12.15-6.95-18.15-10.54-1.44-.86-2.89-1.72-4.54-2.69-.86,.52-1.92,1.17-2.98,1.81-4.36,2.64-8.71,2.49-13.2,.21-5.85-2.98-11.58-6.21-18.04-7.89-2.93-.76-5.68-.48-8.46,.07-2.72,.53-5.38,1.37-8.04,2.2-5.67,1.77-8.5,1.56-12.99-1.1-1.36,2.95-.58,6.04-.35,8.97-1.12,.6-1.64,.21-2.08-.56-.87-1.52-1.78-3.02-2.78-4.71l-3.58,1.72c-.23-.77-.5-1.3-.53-1.85-.36-5.68-1.62-11.17-3.38-16.56-.03-.08-.07-.16-.09-.24-.9-3.63,.73-5.21,4.35-4.21,.56,.16,1.12,.32,1.45,.42,1.09-2.31,2.24-4.46,3.11-6.72,.72-1.88,1.16-3.87,1.64-5.83,1.1-4.47,2.96-8.63,5.31-12.54,2.08-3.47,4.28-6.88,6.62-10.18,1.31-1.84,2.86-3.61,4.61-5.04,2.91-2.38,3.89-5.63,4.67-9.01,1-4.38,1.39-8.83,1.21-13.33-.09-2.26,0-4.53,0-6.8,0-.34,.07-.78-.11-.99-1.78-2.11-2.83-4.84-5.27-6.38-.51-.32-1.25-.4-1.88-.38-2.16,.09-3.86-.63-5.38-2.25-3.56-3.81-6.18-8.17-8.56-12.79-2.31-4.49-5.02-8.79-7.7-13.09-.62-.99-.94-1.69-.31-2.71,.43-.71,.76-1.48,1.26-2.49-3.83,.2-7.17,1.07-9.9,3.43-.73,.63-1.12,1.89-1.24,2.92-.22,1.84-.09,3.71-.18,5.57-.04,.76-.26,1.5-.4,2.25l-.69,.1c-1.06-2.76-2.11-5.51-3.36-8.77-1.18,1.57-2.04,2.74-2.93,3.9-1.43,1.86-2.89,3.71-4.33,5.57-1.06,1.37-2.59,1.45-3.87,.83-1.45-.7-2.26-.2-3.02,.82-2.7,3.64-5.9,7.02-6.69,11.72-.34,1.99-1.34,2.77-3.33,3.07-4.9,.74-9.75,1.8-14.75,1.82-2.34,.01-4.72,.29-7.01,.8-1.36,.31-2.12-.04-2.76-1.04-1.05-1.63-2.05-3.3-3.05-4.96-1.56-2.59-3.19-5.14-4.63-7.8-1.93-3.57-3.7-7.21-4.2-11.57-.6,.33-1.12,.51-1.53,.84-2.29,1.86-4.45,3.9-6.86,5.58-1.33,.93-3.04,1.56-4.65,1.8-4.25,.65-8.54,.91-12.84,.26-1.57-.24-3.2-.1-4.8-.16-3.7-.12-7.41-.27-11.11-.38-.49-.01-.98,.1-1.57,.17,.1,2.31,.92,4.17,2.53,5.67,6.23,5.81,12.34,11.75,19.4,16.6,3.2,2.2,6.33,4.5,9.75,6.93,.61-.92,1.17-1.71,1.68-2.53,1.1-1.77,2.37-2.25,3.7-1.36,1.52,1.02,1.58,2.51,.11,4.32,.67,.59,1.43,1.11,2.01,1.79,1.21,1.39,.83,2.45-.97,2.88-.4,.1-.81,.1-1.39,.17,.35,.63,.73,1.11,.88,1.65,.12,.43,.14,1.21-.1,1.35-.42,.26-1.2,.39-1.59,.16-.85-.5-1.54-1.26-2.55-2.13,.09,1.29,.3,2.26,.17,3.2-.07,.54-.69,1.01-1.06,1.51-.44-.34-1.09-.59-1.28-1.04-.75-1.79-1.48-3.63-.34-5.76-9.17-6.7-18.22-13.31-27.5-20.1-.34,1.1-.47,1.86-.8,2.52-.31,.62-.73,1.44-1.29,1.64-.9,.32-1.2-.66-1.56-1.32-.35-.62-.71-1.23-1.25-2.16-.6,1.02-.92,1.68-1.35,2.26-.88,1.22-1.69,1.28-2.64,.16-.58-.69-.87-1.58-2.07-1.57-1.24,.01-2.05,.61-2.82,1.43-3.45,3.68-7.26,7.05-9.75,11.56-1.23,2.23-2.25,4.24-1.73,7.08,.44,2.38-.38,4.99-.66,7.5-.52,4.69-1.16,9.37-1.56,14.07-.45,5.29-.96,10.6-.91,15.9,.05,5.12,.7,10.24,1.23,15.35,.61,5.86,1.22,11.73,2.11,17.55,.96,6.25,2.04,12.5,4.77,18.3,.32,.68,.26,1.53,.47,2.9-2.6-1.36-4.73-2.31-6.69-3.53-3.36-2.09-6.59-4.41-9.94-6.54-2.72-1.73-4.32-4.28-5.32-7.2-.98-2.87-1.61-5.85-2.54-8.74-1.57-4.9-3.26-9.77-4.89-14.65-2.73-8.16-5.38-16.36-8.21-24.48-2.91-8.37-6.05-16.66-9.01-25.01-3.82-10.75-8.45-21.16-13.02-31.6-1.41-3.23-3.36-6.25-5.33-9.2-.95-1.42-2.45-2.53-3.83-3.61-1.45-1.13-3.11-.95-4.41,.23-3.81,3.45-7.81,6.69-10.78,11.02-2.97,4.34-5.61,8.81-7.99,13.5-1.83,3.6-4.18,6.95-6.49,10.28-4.09,5.9-8.24,11.76-12.52,17.52-1.96,2.64-4.25,5.03-6.45,7.48-3.87,4.3-6.89,9.16-9.76,14.16-4.83,8.42-9.71,16.83-14.73,25.14-4.02,6.65-8.25,13.17-12.45,19.71-2.98,4.64-7.64,7.13-12.56,9.01-8.12,3.11-16.33,5.97-24.54,8.82-5.18,1.8-10.37,3.62-15.67,4.98-4.8,1.24-9.72,2.35-14.73,2.02-2.83-.18-5.65-.85-8.41-1.52-1.08-.26-1.99-1.18-3-1.75-1.31-.74-2.59-1.55-3.97-2.12-4.93-2.02-9.97-3.7-15.31-4.26-2.51-.26-5.05-.56-7.56-.49-4.91,.15-9.71,.96-14.14,3.3-3.01,1.59-5.86,3.36-8.32,5.73-.61,.58-1.25,1.16-1.74,1.83-2.83,3.86-6.59,6.46-10.88,8.45-2.22,1.03-4.42,2.15-6.45,3.5-3.11,2.07-6.47,2.73-10.11,2.59-1.17-.05-1.71-.6-1.88-1.62-.18-1.08-.21-2.18-.37-3.26-.9-5.99-.89-11.92,1.03-17.76,.44-1.34,.61-2.79,.8-4.2,.62-4.58,2.68-8.69,4.23-12.96,3.12-8.56,6.39-17.07,9.44-25.65,1.04-2.92,1.41-6.08,2.41-9.02,1.63-4.78,3.53-9.48,5.34-14.2,.29-.77,.76-1.47,1.17-2.25,2.67,.57,5.12,.97,7.36,2.3,5.07,2.99,10.76,4.38,16.3,6.12,2.06,.65,4.29,.88,6.46,1.03,1.02,.07,2.13-.4,3.12-.81,5.69-2.34,11.35-4.76,17.05-7.08,2.73-1.11,5.51-2.11,8.31-3.05,5.27-1.77,10.58-3.46,15.86-5.2,.72-.24,1.45-.5,2.09-.89,1.3-.8,1.54-2.24,.64-3.46-.35-.48-.69-.98-1.13-1.36-2.18-1.82-2.65-4.46-3.26-6.97-.52-2.16,.49-4.06,2.01-5.47,1.55-1.43,3.14-1.09,4.24,.13,1.62,1.8,2.72,3.82,3.14,6.23,.28,1.57,.72,3.12,1.1,4.67,.31,1.26,1.05,1.93,2.39,1.58,2.19-.56,4.46-.97,6.55-1.81,7.51-3.04,14.94-6.26,22.42-9.35,2.96-1.22,5.99-2.3,8.99-3.43,2.24-.84,3.96-2.07,4.58-4.62,.41-1.7,1.43-3.25,1.94-4.94,.43-1.43,.68-2.96,.74-4.45,.11-2.85,.08-5.7,.02-8.55-.07-3.87-.25-7.72-1.56-11.46-1.02-2.94-1.08-5.87,.16-8.88,1.19-2.87,1.92-5.93,2.96-8.87,.39-1.09,1.03-2.12,1.68-3.09,1.78-2.66,3.61-5.29,5.46-7.89,1.02-1.43,2.11-2.81,3.22-4.19,.68-.85,1.45-1.64,2.3-2.61-1.1-2.02-2.18-4.02-3.27-6-.24-.44-.6-.84-.77-1.31-1.34-3.66-4.07-6.02-7.08-8.34-4.94-3.82-9.57-8.02-14.41-11.98-2.87-2.35-5.86-4.56-8.86-6.76-.48-.35-1.27-.3-1.92-.43-1.27-.25-2.13-.85-2.29-2.29-.23-2.06-.15-2.45,1.53-3.23,4.92-2.27,9.96-4.18,15.32-5.1,5.14-.88,10.27-1.85,15.43-2.58,2.66-.38,5.38-.3,8.08-.45,5.55-.31,11.1-.57,16.64-.96,3.65-.26,7.01,.48,10.22,2.23,1.75,.95,3.39,2.25,5.78,2.27,.5-.89,1.14-1.79,1.53-2.78,2.49-6.27,4.91-12.57,7.37-18.86,.74-1.89,1.69-3.7,2.3-5.63,1.5-4.74,2.82-9.53,4.31-14.27,.53-1.68,1.25-3.31,2.05-4.88,2.48-4.8,5.14-9.51,7.5-14.36,.61-1.26,.46-2.94,.46-4.43,0-.37-.74-.82-1.22-1.09-1.82-1.04-3.73-1.93-5.48-3.08-1.04-.68-2.02-1.03-3.26-1.08-5.66-.2-11.25,.12-16.84,1.22-4.11,.81-8.37,.86-12.55,1.35-3.93,.46-7.87,.9-11.74,1.66-1.77,.35-3.4,1.44-5.1,2.21-3.61,1.63-7.19,3.34-10.83,4.88-2.98,1.26-5.78,2.77-8.27,4.84-1.5,1.24-3.06,2.39-4.61,3.57-1.67,1.27-2.85,2.89-3.34,4.94-.41,1.71-1.51,2.74-2.98,3.56-2.64,1.47-5.51,2-8.47,2.29-2.93,.28-5.87,.58-8.75,1.14-3.54,.68-6.98,1-10.28-.82-1.1-.61-1.97-.33-2.62,.65-.89,1.33-1.76,2.69-2.56,4.07-.69,1.19-1.62,1.85-3.03,1.94-2,.13-3.99,.39-6,.6-.91-2.16-.29-4.12-.55-6.01-.25-1.87-.66-3.72-1.11-6.19-1.39,1.51-2.33,2.55-3.29,3.56-.92,.97-1.47,2.45-3.6,2.57,.3-1.39,.46-2.51,.78-3.58,1.12-3.8,2.31-7.58,3.43-11.38,.18-.61,.18-1.28,.26-1.94-2.51-.69-3.61,2.18-5.74,2.03-.68-1.14,.17-1.65,.67-2.26,1.34-1.63,2.66-3.27,4.05-4.86,.99-1.14,.98-2.21,.12-3.41-.78-1.1-1.35-2.37-2.24-3.36-.91-1.01-.9-2.01-.34-3.01,1.22-2.21,2.32-4.55,3.89-6.5,4.97-6.18,10.03-12.29,15.25-18.27,2.61-2.98,5.7-5.53,8.45-8.39,3.04-3.15,6.1-6.31,8.86-9.71,1.58-1.95,3.6-3,5.69-4.05,.99-.5,1.04-.4,2.64,.83,2.61-3.36,5.37-6.61,7.35-10.57-.42,0-.67-.05-.9,0-2.83,.72-3.35,.35-3.03-2.58,.15-1.4,.64-2.78,1.07-4.14,.33-1.04,.93-2.01,1.22-3.06,.77-2.8,2.44-5.04,4.48-6.93,4.83-4.47,9.79-8.81,14.71-13.18,2.46-2.19,4.95-4.34,7.44-6.49,1.85-1.59,3.76-3.13,5.6-4.73,.62-.54,1.14-1.2,1.83-1.95-2.1-2.56-4.12-5.01-6.13-7.46-.2,.09-.4,.11-.49,.23-1.96,2.51-2.12,2.54-4.94,.96-1.69-.95-3.4-1.89-5.07-2.88-.64-.38-1.25-.87-1.79-1.39-2.27-2.21-2.26-2.95,0-5.13,1.22-1.17,1.28-1.95,.07-3.78-1.45-2.18-3.03-4.28-4.48-6.46-1.11-1.67-2.21-3.37-3.13-5.15-1.12-2.17-2.09-4.42-3.06-6.67-1.1-2.55-1.49-5.18-.55-7.89,.16-.47,.23-.97,.37-1.58-1.97-.74-3.22,1.34-5.04,1.2-.7-2.38,1.34-3.87,1.86-5.95-.44-.14-.81-.36-1.19-.38-5.22-.19-10.45-.27-15.67-.57-3.27-.19-6.58-.47-9.77-1.17-1.88-.41-2.88,.24-3.9,1.45-.76,.9-1.53,1.8-2.22,2.75-3.31,4.57-7.79,7.94-11.87,11.73-4.27,3.96-8.53,7.94-12.81,11.9-1.42,1.32-2.88,2.61-4.31,3.92-.87,.8-1.78,1.57-2.55,2.46-2.8,3.2-3.16,6.14-.92,9.68,1.25,1.98,2.76,3.85,4.36,5.56,3.62,3.85,6.67,8.02,8.37,13.09,1.1,3.28,1.95,6.68,3.45,9.77,1.69,3.47,3.95,6.66,6.03,9.93,.27,.42,1.09,.91,1.44,.78,1.93-.69,3.43,.2,4.93,1.21l1.98-1.7c1.66,.79,2.05,2.29,2.24,3.77,.17,1.31-1.51,2.36-3.15,2-.89-.2-1.7-.69-2.72-1.12l-.92,3.33c-.72-.09-1.35-.17-1.98-.24-.29,.4-.58,.79-.87,1.2-.3-.03-.56,0-.78-.09-.39-.16-.73-.46-1.13-.57-2.59-.73-3.5-1.73-2.98-4.11,.37-1.68-.15-2.88-.89-4.26-3.5-6.55-6.91-13.16-10.35-19.75-.23-.44-.49-.88-.77-1.39-.83,.71-1.26,2.07-2.69,1.36-.15-.07-.51,.05-.63,.2-1.19,1.42-2.15,.84-3.08-.31-.2-.24-.47-.41-1.25-1.07,.38,2.61,.73,4.62,.96,6.64,.43,3.77,.97,7.53,1.11,11.31,.15,4.1-2.62,7.85-6.44,9.36-1.75,.69-1.8,.82-1.67,2.77,.06,.91,.01,1.83,.01,2.68-1.55,.82-2.01-.2-2.47-1.09-.6-1.17-1.12-2.37-1.77-3.75-1.45,1.04-1.3,2.44-1.71,3.56-.6,1.65-.85,1.8-3.01,1.34,.16-1.19,.31-2.4,.5-3.83-.5,.23-.86,.37-1.19,.56-.78,.48-1.77,.83-2.19-.12-.32-.71-.24-1.89,.16-2.56,.48-.81,1.49-1.3,2.24-1.9-.23-.95-.6-1.89-.65-2.85-.08-1.42,.55-1.89,1.87-1.48,.88,.27,1.68,.77,2.52,1.16,.99,.47,1.95,1.05,2.99,1.37,2.34,.72,4.26-.33,4.77-2.76,.36-1.71,.56-3.53,.41-5.26-.49-5.79-1.01-11.59-1.84-17.34-.66-4.58-1.76-9.1-2.75-13.62-.19-.87-.71-1.73-1.26-2.45-1.01-1.33-1.91-1.47-3.51-.84-2.51,.98-5.06,1.86-7.54,2.92-5.35,2.29-10.64,4.71-16,6.98-2.41,1.02-4.93,1.73-7.62,1.6-.73-.03-1.47,.2-2.17,.31-.11,2.93,.6,5.53,1.98,7.87,1.98,3.36,2.72,7.04,3.24,10.8,.3,2.17,.66,4.33,.84,6.51,.16,1.99,.09,3.99,.12,5.99,.05,3.11,.14,6.21,.16,9.32,.02,2.59-.97,4.38-3.61,5.39-6.54,2.5-13.17,4.77-19.36,8.15-1.65,.9-3.72,1.02-5.53,1.69-1.07,.4-2.22,.98-2.94,1.81-2.98,3.45-5.81,7.03-8.68,10.57-.43,.52-.93,1.04-1.16,1.66-1.36,3.72-4.5,4.68-7.92,5.23-1.3,.21-2.6,.44-3.85,.66-.33,1.24,.96,2.49-.56,3.52-2.58-1.02-5.09-2.33-7.45-3.97-2.35-1.63-4.74-3.19-7.45-4.56,.4,.54,.77,1.1,1.19,1.62,1.85,2.3,3.86,4.48,5.53,6.9,3.01,4.38,5.7,8.97,8.73,13.33,1.82,2.62,4.03,4.98,6.08,7.45,2.15,2.6,4.52,5.06,6.4,7.84,1.64,2.42,2.93,5.14,4.02,7.86,.53,1.32,.58,3.05,.25,4.46-1.09,4.63-.55,9.21-.17,13.83,.31,3.72,1.22,7.28,2.19,10.88,.99,3.7,.15,7.42-1.33,10.86-1.01,2.36-3.76,2.82-5.95,1.44-1.14-.72-2.35-1.32-3.56-1.91-1.44-.7-2.96-1.24-4.35-2.03-1.74-.98-3.42-1.25-5.31-.46-1.87,.78-3.81,1.36-5.7,2.1-2.85,1.12-5.77,1.82-8.86,1.87-5.14,.08-10.29,.54-15.42,.3-3.97-.18-7.89-.56-11.82,.2-.66,.13-1.4,.14-1.94,.46-2.42,1.45-4.73,.89-6.98-.29C10.53,228.13,4.72,226.11,0,222.13v-1.52l1.59,.2,.14-.22L0,219.59c0-.68,0-1.35,0-2.03,.56,.35,1.18,.63,1.68,1.05,4.57,3.87,9.6,6.77,15.58,7.83,1.44,.25,2.71-.05,4.14-.4,2.05-.5,4.33-.25,6.49-.1,4.37,.31,8.72,1.1,13.08,1.1,7.64,0,15.07-1.47,22.24-4.21,3.31-1.27,6.71-2.3,9.54-4.56,.72-.58,1.44-1.17,2.1-1.83,1.1-1.1,1.83-2.31,1.79-4.01-.06-2.48,.87-4.75,1.83-7.03,1.77-4.2,3.3-8.47,2.77-13.22-.29-2.61-1.25-4.94-2.64-7.02-2.82-4.2-5.75-8.34-8.82-12.36-3.38-4.42-6.99-8.66-10.45-13.02-1.89-2.38-3.68-4.83-5.49-7.26-1.99-2.67-3.39-5.67-4.38-8.81-.65-2.06-.77-4.28-1.11-6.44-.04-.24,.02-.51,.07-.75,.52-2.51,1.7-3.15,3.93-1.84,1.28,.75,2.6,1.74,3.38,2.96,2.79,4.38,7.06,5.78,11.82,6.32,1.84,.21,3.69,.37,5.54,.36,2.16,0,2.44-.39,3.16-2.45,.33-.93,.83-1.89,1.52-2.57,3.18-3.13,5.19-7.06,7.48-10.79,1.3-2.12,2.75-3.4,5.43-3.38,1.53,.02,3.19-.56,4.58-1.28,2.37-1.23,4.86-1.89,7.44-2.3,2.97-.46,5.66-1.62,8.16-3.26,.21-.14,.42-.28,.63-.42,1.47-.99,3.4-1.68,4.28-3.05,.85-1.33,.72-3.34,.84-5.07,.44-6.16,.76-12.32-1.12-18.35-1.18-3.79-2.45-7.55-3.47-11.38-.73-2.76-1.14-5.6-1.63-8.42-.08-.46-.02-1.15,.27-1.42,1.51-1.41,2.8-2.94,4.99-3.66,5.67-1.87,11.61-1.96,17.37-3.2,5.9-1.27,11.23-3.55,15.94-7.32,1.19-.95,1.71-2.04,1.29-3.52-.46-1.62-.93-3.23-1.42-4.84-.56-1.85-1.08-3.69-.62-5.67,.44-1.87,1.42-2.92,3.13-3.17,1.42-.21,2.41,.45,3.18,2.32,.86,2.1,1.66,4.21,.97,6.61-.44,1.54-.3,3.16,.83,4.87,1.46-.82,2.94-1.45,4.18-2.4,2.68-2.05,5.29-4.19,7.81-6.42,3.79-3.35,7.47-6.83,11.24-10.2,1.95-1.74,4.08-3.28,5.96-5.1,2.17-2.11,4.22-4.36,6.2-6.65,2.05-2.38,2.88-5.3,3.28-8.36,.19-1.43,.88-2.55,2.09-3.32,.79-.5,1.55-.56,2.23,.29,.58,.72,1.49,1.26,1.87,2.06,1.06,2.26,2.98,2.72,5.15,2.88,4.87,.34,9.74,.81,14.62,1.05,3.45,.17,6.92,.03,10.44,.03,1.63-4.19,1.22-8.48,1.87-12.67,2.36-.37,1.52,2.02,2.58,2.86,2.17-1.61,2.36-4.64,4.23-6.64,1.61,1.32,.39,2.69,.51,3.9,.12,1.24,.03,2.5,.03,4.15,1.9-.31,3.55-.46,5.14-.86,2.28-.58,4.51-1.36,6.78-2,.83-.23,1.7-.3,2.55-.45l.3,.52c-.37,.48-.65,1.11-1.13,1.43-2.93,1.98-5.91,3.9-8.88,5.83-.55,.36-1.13,.69-1.94,1.18,.86,2.26,1.65,4.46,2.54,6.62,.77,1.87,1.69,3.68,2.47,5.55,.25,.61,.26,1.32,.38,1.98l-.5,.26-8.62-5.76c-2.18,2.14-3.39,4.42-3.56,7.38-.22,3.91,.75,7.56,2.13,11.09,.72,1.84,2.08,3.47,3.3,5.08,1.68,2.22,3.59,4.27,5.23,6.52,3.61,4.96,8.01,9.13,12.56,13.19,2,1.79,3.77,3.85,5.48,5.93,1.19,1.45,1.04,1.67-.34,2.82-5.69,4.77-11.47,9.45-17.03,14.38-2.9,2.57-5.49,5.49-8.07,8.39-3.2,3.59-6.26,7.31-9.34,11-.49,.59-.81,1.33-1.21,2l.59,.44c.76-.87,1.41-1.87,2.3-2.58,1.3-1.03,2.12-.61,2.39,1.04,.04,.25-.07,.55,.04,.75,1.7,3.16-.29,5.5-1.89,7.78-4.35,6.22-8.82,12.37-13.33,18.49-1.28,1.74-2.85,3.27-4.3,4.91-1.94-1.94-1.94-3.94-.21-5.65,.82-.81,1.85-1.47,1.7-3.17-.47,.42-.77,.63-1.01,.89-2.04,2.25-3.99,4.6-6.14,6.74-5.27,5.24-10.46,10.55-15.05,16.41-2.96,3.79-5.87,7.63-8.55,11.62-2.35,3.48-2.47,7.35-.44,11.03,2.08,3.77,4.15,7.59,6.72,11.02,4.17,5.59,10.09,8.58,16.85,9.96,2.75,.56,5.5,.45,8.29,.03,2.61-.39,4.7-1.53,6.09-3.67,3.9-5.97,9.57-9.84,15.4-13.65,5.18-3.39,10.39-6.62,16.25-8.67,3.82-1.33,7.65-2.66,11.82-2.48,1.06,.05,2.17-.31,3.2-.65,3.8-1.26,7.67-1.94,11.68-2,2.94-.05,5.88-.38,8.82-.32,5.32,.12,10.56,.99,15.76,2.05,1.7,.35,3.31,1.18,4.9,1.95,1.21,.58,2.31,1.41,3.46,2.11,2.62,1.59,3.38,3.33,2.17,6.16-1.62,3.8-3.46,7.51-5.33,11.2-2.52,4.97-5.51,9.69-7.35,14.99-.59,1.71-.93,3.43-.14,5.17,2.29,5.05,3.21,10.48,4.38,15.83,1.56,7.12,3.81,14.02,6.36,20.81,3.5,9.32,7.33,18.51,11.07,27.73,1.82,4.5,4.33,8.61,7.62,12.18,3.57,3.88,8.08,5.77,13.3,6.64,7.5,1.25,13.95-.96,20.17-4.75,3.52-2.15,6.97-4.5,11-5.66,1.26-.36,2.49-.85,3.94-.42,1.03,.31,1.71,.77,1.96,1.71,.62,2.32,1.63,4.43,3,6.38,.12,.17,.04,.48,.07,1.04-2.4,.52-4.61,2.36-7.29,.61-.52,.46-1.12,.77-1.36,1.26-1.53,3.18-3.76,6.06-4.39,9.61-.44,2.46,.13,4.9,1.08,7.16,.39,.93,1.3,1.85,2.21,2.3,2.79,1.37,5.63,2.7,8.58,3.7,3.51,1.19,7.13,2.04,10.71,3,2.51,.67,5,.55,7.58-.31,.59-1.86-.48-3.4-.97-5.05-.33-1.11-.74-2.24-.81-3.38-.11-1.74,.76-3.14,2.32-3.9,1.36-.66,2.91-.04,4.25,1.38,1.77,1.89,2.18,4.12,1.79,6.59-.68,4.23-.65,4.61,3.46,4.36,3.84-.23,7.52,.63,11.29,.78,5.43,.21,10.8-.03,16.13-1.09,.88-.18,1.82-.54,2.5-1.1,3.99-3.29,7.79-6.72,9.68-11.78,.99-2.64,2.54-2.98,5-1.49,1.01,.61,2.03,1.2,3.1,1.69,1.38,.63,2.12,1.72,2.27,3.12,.13,1.25,.19,2.58-.12,3.77-.96,3.67-.38,7.19,.6,10.72,.18,.65,.54,1.3,.55,1.94,.01,3.64,2.2,6.29,4.07,9.06,.46,.68,1.39,1.3,2.19,1.42,1.64,.24,3.33,.24,4.99,.14,2.44-.14,4.87-.4,7.29-.72,1.13-.15,2.25-.53,3.33-.91,2.69-.95,4.19-2.95,5.27-5.56,.72-1.74,2.17-3.17,3.28-4.75,1.56-2.2,3.1-4.41,4.65-6.62q1.7-2.41,4.15-1.02c.59,.33,1.18,.68,1.82,.88,1.11,.34,1.98,.13,2.95-.76,2.51-2.33,3.67-5.13,3.85-8.5,.19-3.78,.54-7.55,.83-11.32,.04-.48,.14-.95,.26-1.75,3.11,1.41,2.66,4.67,4.3,6.91,1.66-1.71,3.32-3.41,5.24-5.38,1.11,2.72-.39,4.88-.46,7.26,3.58-.44,6.96-1.27,10.32-2.32,1.52-.48,3.1-.77,4.67-1.01,.77-.12,1.59,.07,2.58,.13-.45,2.78-2.65,3.95-3.97,5.95,1.63,4.81,3.74,9.47,6.63,13.76,1.04,1.54,2.22,2.98,3.21,4.56,1.79,2.85,4.01,5.17,7.04,6.74,3.31,1.72,5.74,4.42,7.82,7.44,2.46,3.59,3.05,7.67,2.69,11.87-.25,3.01-1.02,5.97-1.41,8.97-.48,3.67-.88,7.36-1.18,11.05-.15,1.93-.72,3.56-2.03,5.02-4.6,5.1-8.46,10.74-11.76,16.76-1.95,3.55-3.88,7.13-5.48,10.84-.85,1.96-1.34,4.23-1.34,6.36,0,4.03,.28,8.09,.83,12.08,.41,2.93,1.87,5.56,3.54,8.04,1.2,1.77,2.74,2.13,4.61,1.53,2.09-.66,4.14-1.41,6.21-2.14,2.47-.88,4.93-1.58,7.65-1.17,1.46,.22,3-.17,4.5-.12,3.75,.14,7.25,1.12,10.64,2.86,4.87,2.51,9.93,4.65,14.88,7.01,1.08,.52,1.94,.34,2.81-.35,2.44-1.94,4.89-3.87,7.32-5.83,1.18-.96,2.33-1.95,3.43-3,2.3-2.18,5.12-2.99,8.14-3.7,6.7-1.57,12.25-4.82,14.9-11.65,1.96-5.05,3.28-10.27,3.92-15.66,1.11-9.28,.02-18.32-2.99-27.14-.22-.64-.43-1.29-.54-1.95-.87-5.42-4.09-9.19-8.6-11.91-2.39-1.44-3.23-3.54-3.59-6.04-.18-1.24,.57-2.06,1.43-2.8,1.34-1.16,2.69-2.31,3.99-3.52,1.94-1.81,4.45-2.29,6.84-3.06,1.35-.44,2.65-1.04,3.93-1.65,1.16-.56,1.23-1.44,.63-2.53-2.03-3.7-4.23-7.26-6.89-10.59-2.19-2.74-3.72-6.01-5.56-9.03-2.76-4.54-5.5-9.09-8.33-13.6-1.39-2.21-2.93-4.33-4.41-6.49-1.16-1.7-2.72-2.72-4.83-2.87-1-.07-2.03-.21-2.99-.51-1.35-.42-2.92-.7-3.92-1.59-3.57-3.14-6.99-6.54-6.94-11.78,.01-1.44,.5-3.04,1.25-4.28,2.63-4.37,5.97-8.14,10.03-11.29,4.74-3.68,9.36-7.51,13.3-12.09,3.36-3.9,4.48-8.1,2.47-13.09-1.38-3.42-2.38-7.01-3.33-10.59-.7-2.65,.12-5.2,1.51-7.47,1.37-2.25,3.97-2.32,5.74-.37,2.14,2.35,2.63,5.21,2.64,8.24,0,3.72,.57,7.34,1.74,11.2,.54-.57,.91-.97,1.29-1.37,1.6-1.73,3.06-3.62,4.84-5.15,4.67-4.02,9.43-7.93,14.25-11.78,2.98-2.38,5.22-5.3,6.9-8.64,1.33-2.66,3.4-4.6,5.59-6.46,.76-.65,1.54-1.28,2.45-2.03-.33-.94-.58-1.82-.95-2.65-1.94-4.4-3.92-8.78-5.88-13.17-1.86-4.16-3.74-8.32-5.57-12.49-2.04-4.66-4.8-8.92-7.56-13.17-1.01-1.55-2.03-3.1-3.07-4.67-3.13,.83-6.22,1.57-9.26,2.48-4.68,1.4-9.32,2.96-14,4.35-4.02,1.19-8.17,1.85-12.19,.36-6.33-2.34-12.55-4.92-17.95-9.19-3.37-2.66-6.99-5.05-10.69-7.24-3.72-2.21-7.98-3.12-12.16-4.13-6.32-1.52-12.74-1.41-19.15-1-6.15,.4-12.15,1.77-18.09,3.4-2.75,.76-5,2.27-7.07,4.26-8.6,8.29-18.2,15.12-29.6,18.99-7.86,2.67-15.32,1.67-21.92-3.76-4.69-3.86-8.59-8.3-10.83-14.08-1.15-2.99-2.63-5.85-3.91-8.79-2.2-5.08-3.11-10.49-3.92-15.92-1.22-8.24-2.37-16.49-3.54-24.73-.36-2.58-.68-5.17-1.01-7.75-.21-1.65,.06-3.18,1.19-4.5,1.94-2.25,3.92-4.42,6.87-5.42,1.37-.46,2.49-.26,3.4,.88,.47,.59,.94,1.2,1.38,1.81,2.61,3.65,6.19,5.41,10.63,5.32,2.61-.05,5.21-.36,7.82-.46,3.12-.12,6.25-.13,9.37-.19,6.92-.12,13.85-.38,20.77-.29,3.85,.05,7.77,.32,11.52,1.16,4.89,1.09,9.36,3.47,13.36,6.47,4.12,3.09,8.83,4.93,13.42,7.07,1.91,.89,3.78,1.87,5.66,2.83,4.99,2.54,10.08,3.62,15.63,1.73,4.09-1.39,8.27-2.52,11.57-5.48,.98-.88,2-1.92,2.51-3.1,.88-2.01,2.24-3.55,3.8-4.97,2.49-2.27,5.77-2.31,8.17,.04,1.22,1.19,2.19,2.64,3.28,3.97,.14,.17,.32,.32,.51,.42,6.55,3.44,13.41,6.14,20.32,8.73,4.02,1.51,8.07,2.96,12.03,4.61,4.12,1.72,8.2,2.41,12.53,.8,3.47-1.29,6.98-2.53,10.56-3.47,2.42-.63,4.98-.74,7.48-.95,.41-.03,1.06,.51,1.28,.95,1.06,2.11,2.03,4.27,2.98,6.43,3.25,7.33,6.78,14.56,9.62,22.04,2.9,7.64,7.81,13.96,12.23,20.63,3.83,5.77,7.68,11.52,11.65,17.2,1.44,2.07,3.18,3.69,5.92,4.39,3.32,.85,6.57,2.22,9.61,3.83,3.33,1.76,6.86,2.86,10.39,3.93,4.91,1.49,9.87,2.87,14.99,3.59,1.91,.27,3.78,.86,5.67,1.26,.9,.19,1.82,.38,2.73,.4,1.19,.03,2.17-.37,2.4-1.74,.03-.16,.12-.31,.19-.47,1.51-3.67,2.41-4.11,6.11-2.6,5.39,2.2,10.73,4.52,16.11,6.74,2.08,.86,4.23,1.56,6.53,2.41-.82,2.57-3.83,1.8-5.14,3.85,.98,.46,1.92,.96,2.9,1.34,4.77,1.85,9.22,4.26,13.03,7.68,2.18,1.96,4.12,4.18,5.56,6.82,2.38,4.37,5,8.61,7.39,12.97,1.33,2.43,2.41,5,3.57,7.52,.92,1.99,1.91,3.96,2.63,6.03,.49,1.4,.9,2.95,.8,4.4-.3,4.28-.88,8.54-1.35,12.81,0,.08-.05,.17-.04,.25,.47,5.16-1.53,9.77-3.23,14.44-.08,.22-.1,.46-.19,.91,2.8-1.01,5.45-1.96,8.42-3.03,.4-3.28,.81-6.68,1.21-10.01,.86-.58,1.44-.17,1.78,.44,.62,1.09,1.15,2.25,1.67,3.4,.58,1.3,1.09,2.62,1.73,4.15,1.62-.92,3.08-1.73,4.52-2.58,.65-.38,1.37-.55,1.81,.08,.25,.36,.19,1.14-.03,1.59-1.28,2.66-2.66,5.27-3.99,7.91-.7,1.38-2.15,2.55-1.77,4.26,.58,2.58,1.56,5.05,3.79,6.71,1.56,1.16,3.23,2.1,5.27,2.31,.96,.1,1.95,.55,2.77,1.09,2.31,1.51,4.68,2.06,7.45,1.48,2.21-.46,4.51-.45,6.78-.65v1.52c-2.26,.2-4.56,.21-6.77,.66-3.09,.64-5.81,.14-8.41-1.59-.75-.5-1.69-.7-2.56-1.01-1.26-.45-2.62-.71-3.76-1.35-1.5-.84-2.84-1.98-4.45-3.13,1.24,2.55,2.77,4.63,5.01,5.86,3.77,2.07,7.99,2.6,12.21,2.35,2.92-.17,5.82-.83,8.72-1.28v1.52Zm-533.94,22.96c1.33-.13,1.83-.74,2.22-2.72,.35-.17,.76-.27,1.03-.53,2.86-2.74,5.81-5.4,8.5-8.3,2.38-2.56,4.33-2.31,7.4-.56,2.04,1.16,3.54,3.04,4.88,5.05,3.72,5.59,6.24,11.74,8.72,17.93,.95,2.38,2.13,4.66,3.2,6.99-.6-3.6-1.25-7.14-2.84-10.42-1.47-3.03-2.8-6.12-4.16-9.2-1.84-4.16-5.01-7.31-8.01-10.59-.17-.18-.39-.33-.6-.46-1.74-1.14-3.49-2.27-5.43-3.52-1.05,.23-1.51,1.38-2.08,2.39-.67,1.2-1.55,2.11-2.73,2.89-3.25,2.17-6.05,4.81-7.82,8.38-.76,.9-1.52,1.79-2.27,2.71-.59,1.04-1.19,2.07-1.78,3.11q1.64-1.3,1.77-3.14ZM4.94,222.89l-2.42-1.37c.81,1.16,1.41,1.68,2.43,1.38,.47,1.95,2.21,2.06,3.81,2.38-1.27-.8-2.55-1.59-3.83-2.39Zm169.28,171.94c2.98-.59,5.85-1.54,8.54-3-1.89,.35-3.73,.87-5.51,1.54-1.04,.39-1.99,1-2.98,1.51-.66,.13-1.33,.27-1.99,.4l.18,.5c.59-.32,1.17-.64,1.76-.96Zm423.3-120.51c-2.25,2.18-4.19,4.55-4.69,7.79,1.64-2.52,3.29-5.05,4.93-7.57,.92-.97,1.85-1.95,2.77-2.92l-.5-.46c-.77,1.12-1.98,1.81-2.51,3.16ZM218.99,201.45c.5-.04,1.05,.03,1.5-.14,2.32-.87,5.08-1.27,5.87-4.16,.78-2.86,2.56-4.79,4.89-6.47,1.6-1.16,2.94-2.68,4.39-4.05,.48-.12,.99-.16,1.42-.37,2.63-1.32,5.22-2.71,7.87-4,3.33-1.63,6.73-3.13,10.05-4.77,2.67-1.32,5.39-2.4,8.4-2.63,2.01-.15,4.01-.39,6.01-.63,3.84-.45,7.68-.93,11.53-1.39,1.74-.21,3.48-.41,5.22-.62,2.17-.26,4.34-.62,6.51-.74,2.41-.13,4.84-.03,7.26-.03-.28-.47-.58-.6-.89-.63-2.43-.21-4.88-.29-7.29-.62-6.8-.93-13.45,0-20.04,1.57-2.45,.59-4.83,1.4-7.44,1.26-1.23-.07-2.51,.28-3.74,.58-9.18,2.31-17.05,7.22-24.73,12.5-.12,.08-.17,.28-.25,.42-3.37,1.67-6.13,4.07-8.51,6.97-2.37,2.89-4.28,6.27-8,7.77-.03,.01,0,.16,0,.23-.8-.04-1.61-.08-2.41-.12l.02,.47c.78-.13,1.56-.26,2.35-.39Zm285.73,119.71q1.45,1.21,2.88-.09c-1.17,.06-2.04,.1-2.92,.15-.88-.68-1.76-1.37-2.84-2.2-1.12,1.67-2.1,3.14-3.09,4.59-.8,1.18-1.43,2.57-2.46,3.49-2.24,2-3.46,4.54-4.47,7.24-.48,1.28-.83,2.51-2.69,2.41-.61-.04-1.28,.83-1.92,1.29,1.18,.17,2.17,.02,3.16-.11,1.87-.24,2.99-1.19,3.38-3.13,.28-1.39,.63-2.87,1.37-4.04,1.61-2.56,3.48-4.96,5.27-7.4,1.06-1.45,2.49-2.24,4.33-2.19Zm129.53,13.16c.61,1.25,1.23,2.49,1.84,3.74,.64,1.31,1.78,2.5,.66,4.44l2.38-1.26c-1.12-2.79-2.83-4.97-4.93-6.88-.05-.33-.01-.71-.17-.97-2.21-3.48-4.3-7.05-6.73-10.37-1.95-2.66-2.24-4.85-.44-7.51,1.37-2.02,2.67-4.1,3.91-6.21,.78-1.33,1.4-2.76,2.21-4.38-2-.16-3,1.09-4.3,1.54-1.38,.48-2.43,1.93-4.3,1.36-1.06-2.67-1.55-5.65-3.12-8.21-.16,1.4-.1,2.75-.18,4.1-.08,1.37,.46,2.87-.8,4.13-2.31-.85-3.57-3.12-5.68-4.33-.02,.27-.07,.37-.03,.42,4.48,6.14,7.93,12.9,11.72,19.46,2.24,3.88,5.28,7.3,7.97,10.92Zm-388.5-59.87c-.16-.27-.27-.62-.5-.81-3.83-3.03-7.67-6.04-11.53-9.04-.42-.33-.92-.56-1.38-.84l-.35,.49c3.6,2.82,7.18,5.67,10.81,8.45,.9,.69,1.99,1.14,2.99,1.7,1.99,3.71,3.98,7.41,5.96,11.12,1.59,2.98,1.4,3.66-.99,5.87-1.22,1.13-2.28,2.45-3.25,3.81-2.06,2.87-4.03,5.81-6,8.75-.55,.83-1.08,1.72-1.4,2.66-.91,2.63-1.44,5.43-2.63,7.91-1.76,3.69-1.33,7.17-.02,10.77,.34,.94,.61,1.94,.7,2.94,.36,3.93,.66,7.85,.14,11.82-.24,1.83,.32,3.76,.52,5.64,.52-2.86,.73-5.7,.7-8.54-.03-2.95-.42-5.89-.42-8.84,0-3.8,.1-7.58-.75-11.32-.09-.41-.23-.89-.1-1.24,.94-2.51,1.28-5.25,3-7.45,1.67-2.14,3.15-4.38,3.94-7.01,.59-1.96,2.05-3.22,3.63-4.41,1.27-.95,2.46-2.01,3.63-3.09,1.26-1.17,2.44-2.42,3.78-3.75,1.56,1.74,2.87,3.2,4.18,4.65l.52-.25c-.04-.62,.06-1.28-.13-1.84-.98-2.87-2.11-5.7-3.05-8.59-.59-1.83-1.65-2.68-3.55-2.38-1.38,.22-2.21-.48-2.88-1.58-.44-.72-.9-1.44-1.44-2.08-1.17-1.41-2.21-3-4.14-3.52Zm-48.25,98.48c-2.07,.37-4.17,.61-6.2,1.14-1.61,.42-2.49-.22-2.95-1.57-.58-1.74-1.09-3.53-1.45-5.33-.55-2.71-1.44-5.15-3.87-6.72-2.34,1.63-2.8,2.91-2.39,5.35,.41,2.45,1.59,4.44,3.32,6.11,1.44,1.39,2.41,2.83,1.15,5.01,3.21,.85,3.9,3.25,4.41,5.96,.53,2.77,.27,5.16-2.15,7.21,2.39,.11,2.48,1.71,2.56,3.46,.78-.94,1.34-1.77,2.05-2.44,.74-.69,1.5-.71,2.01,.38,.26,.57,.62,1.09,.94,1.65l2.16-1.58c1.21,2.58,2.36,4.83,3.34,7.16,1.16,2.75,2.46,5.35,4.7,7.42,2.49,2.29,5.14,2.7,6.37-1.05,.41-1.25,1.17-2.38,1.69-3.41-.69-.54-1.4-1.1-2.1-1.65-.3,1.2-.53,2.42-.93,3.57-.42,1.21-1.78,1.98-2.75,1.54-.75-.34-1.46-.86-2.07-1.43-2.53-2.32-4.38-5.14-5.64-8.32-2.01-5.1-3.98-10.21-5.92-15.34-.26-.69-.29-1.48-.4-2.22-.24-1.61,.32-2.77,1.85-3.48,.8-.37,1.49-.97,2.23-1.47,.33,0,.69,.1,.99,.01,3.8-1.12,7.61-2.18,11.06-4.22,.78-.46,1.67-.84,2.55-.99,7.01-1.19,13.01-5.01,19.5-7.55,2.77-1.09,5.02-3.09,5.73-6.31,.25-1.14,.77-2.21,1.06-3.34,.09-.36-.2-.82-.4-1.55-.79,1.84-1.58,3.26-2.01,4.79-.75,2.69-2.5,4.27-4.99,5.23-.31,.12-.62,.26-.93,.38-2.75,1.06-5.51,2.08-8.23,3.19-7.25,2.95-14.5,5.93-21.73,8.94-.9,.37-1.7,.97-2.55,1.46ZM170.64,44.44c-.31,.09-.68,.1-.92,.29-2.95,2.38-5.85,4.84-8.84,7.17-.98,.76-2.13,1.37-3.29,1.82-2.28,.88-3.11,.47-3.53-1.95-.27-1.55-.33-3.23-.04-4.77,.5-2.69-.72-4.64-1.89-6.67-1.57,.17-2.37,.87-2.39,2.13-.02,1.31,.08,2.66,.36,3.93,.4,1.81,1.11,3.54,1.54,5.34,.57,2.36,.5,4.51-2.11,5.8-.89,.44-1.6,1.24-2.42,1.83-.74,.53-1.52,1-2.28,1.49,1.31-.05,2.36-.52,3.45-.89,2.01-.67,3.7-.04,4.95,1.56,.66,.85,1.24,1.86,1.51,2.89,1.5,5.7,2.55,11.49,3.11,17.37,.44,4.61,1.04,9.2,1.43,13.81,.2,2.34,.27,4.71-.7,6.98-.97,2.27-2.2,3.22-4.61,3.16-1.15-.03-2.3-.29-2.9-.37-1.76,.93-3.13,1.65-5.01,2.64,1.39-.07,2.37,.14,3.11-.2,1.64-.74,2.88-.38,3.78,.81,1.17-.68,2.13-1.38,3.19-1.83,3.55-1.49,5.3-4.1,5.42-7.98,.15-5.19-.83-10.24-1.68-15.31-.12-.74-.25-1.49-.36-2.23-.24-1.64,1.55-2.32,2.81-1.67,.64,.33,1.18,.87,1.77,1.32,.31-.65,.52-1.57,.81-1.59,.78-.07,1.6,.24,2.43,.41,.32-1.64-1.59-2.98-.45-4.69,1.18,.05,1.76,.7,2.22,1.72,1.64,3.61,3.34,7.19,5.07,10.76,.64,1.33,1.44,2.58,2.16,3.87l.59-.25c-.73-2.12-1.48-4.24-2.2-6.37-2-5.94-5.28-11.03-9.74-15.47-2.08-2.07-3.82-4.47-4.95-7.27-.77-1.91-.77-3.77-.03-5.66,.98-2.48,2.52-4.52,4.56-6.27,2.1-1.8,4.02-3.81,6.01-5.73,.37-.16,.83-.23,1.1-.48,3.03-2.81,6.03-5.64,9.03-8.48,.44-.41,.8-.9,1.2-1.35l-.42-.35c-2.61,2.49-5.23,4.97-7.81,7.49-1.06,1.03-2.04,2.15-3.06,3.23Zm54.33,80.22c-.89,.95-1.91,1.81-2.66,2.86-1.86,2.59-2.04,2.65-4.43,.27-1.37,1.02-3.03,1.84-4.13,3.14-3.28,3.87-6.52,7.75-10.35,11.11-2.03,1.78-3.94,3.7-5.75,5.71-3.9,4.32-7.83,8.64-11.51,13.14-2.87,3.51-5.4,7.31-8.09,10.97-1.1,1.5-.97,2.91,.09,4.4,.83,1.16,1.46,2.46,2.18,3.7,.69,1.18,.49,2.23-.37,3.26-.69,.82-1.29,1.71-2,2.66,2.48,.33,2.95,.8,2.71,3.04-.16,1.5-.54,2.98-.94,4.44-.63,2.24-1.37,4.46-2.13,6.91,1.94-.98,2.56-3.25,4.76-3.54,1.66,4.06,2.03,8.21,1.98,12.37,4.44,.58,5.62,.03,7.74-3.35,.84-1.35,1.77-2.65,2.77-4.15,1.02,.2,2.11,.16,2.94,.61,4.53,2.45,8.68,1.25,14.07-.31-1.16-.2-2.14-.38-3.13-.55-8.01-1.42-14.58-5.23-19.27-11.95-1.92-2.76-3.63-5.69-5.24-8.65-2.93-5.37-2.92-10.61,1.14-15.51,.27-.32,.51-.67,.74-1.03,4.55-6.96,10.04-13.15,15.77-19.13,4.61-4.82,9.54-9.34,13.51-14.74,.18-.25,.53-.37,.78-.53,2.1,1.69,2.36,3.31,.85,5.17-.53,.65-1.22,1.18-1.72,1.85-.27,.35-.3,.89-.45,1.34l.52,.21c3.61-4.3,6.92-8.8,9.6-13.76,.22-.1,.52-.13,.64-.3,2.1-2.86,4.31-5.64,6.22-8.62,2.07-3.23,2.02-2.63,.35-6.16-.98,1.24-1.91,2.42-3.03,3.84h2.35c.38,1.47-.69,2.14-1.25,3.02-1.74,2.76-3.49,5.51-5.23,8.26Zm31.25,167.7c-.41,.27-.67,.37-.82,.55-1.84,2.33-3.84,4.43-6.44,5.99-.93,.56-1.75,1.72-2.07,2.78-.87,2.81-2.51,5.14-4.1,7.53-1.98,2.99-3.2,6.22-2.49,9.93,.19,.98,.27,2,.29,3.01,.07,3.21-.03,6.42,.17,9.62,.36,5.74,.8,11.46-.58,17.13-.41,1.7-.72,3.43-1.28,5.08-.64,1.9-1.07,4.02-2.93,5.19-1.92,1.21-3.92,2.29-5.94,3.32-1.5,.76-3.09,1.34-4.64,2.02-4.09,1.78-8.06,3.88-12.58,4.47-.73,.09-1.45,.44-2.11,.79-2.99,1.58-6.04,2.97-9.33,3.85-1.61,.43-3.18,1.15-4.66,1.93-1.99,1.05-2.15,1.71-1.35,3.9,.75,2.06,1.48,4.13,2.3,6.16,1.67,4.14,3.21,8.34,5.14,12.36,1.11,2.3,2.84,4.32,5.26,5.66,1.15-1.29,1.24-2.61,1.22-3.97-.02-1.26-.05-2.54,.09-3.78,.06-.53,.58-1.01,1.12-1.9,.61,1.29,1,2.09,1.37,2.87,.67-.35,1.34-.7,2.21-1.14,.21,1.05,.35,1.73,.49,2.41,1.64-.22,1.9-.16,2.28,.53,.95,1.74-.63,2.54-1.37,3.49-.02,1.15,1.35,2.07,.09,3.22-.64-.29-1.26-.58-1.81-.83-.81,1.42-1.46,2.69-2.25,3.88-.29,.44-.85,.92-1.34,.99-1.99,.28-4.07,.02-5.48-1.36-1.66-1.63-3.08-3.59-4.24-5.61-1.42-2.47-2.46-5.16-3.73-7.9-1.87,.78-3.15,.11-4.1-1.8-.55,1.44-.98,2.56-1.41,3.68-3.18-.2-2.4-3.02-3.35-4.48-3.08,1.13-6.05,2.26-9.05,3.31-6.21,2.16-12.44,4.28-18.67,6.4-1.76,.6-2.57,.06-2.71-1.78-.06-.75-.02-1.53,.13-2.27,.12-.63,.3-1.49,.75-1.74,.5-.29,1.32,0,2,.02l.69-2.49,.6-.1c.47,.63,.95,1.27,1.48,1.99,.23-.56,.38-1.04,.6-1.48,.38-.76,1.03-1.31,1.82-.85,.47,.27,.75,1,.93,1.58,.11,.37-.11,.85-.24,1.58,1.03-.35,1.75-.56,2.44-.83,4.33-1.65,8.66-3.31,13-4.95,1.42-.54,2.87-1,4.28-1.54,1.1-.42,1.88-1.23,2.03-2.4,.27-2.13-.07-4.21-.91-6.19-.43-1-1.18-1.43-2.25-.98-1.32,.56-2.64,1.12-3.92,1.75-3.64,1.77-7.15,3.88-10.92,5.29-8.05,3.02-16.23,5.68-24.35,8.5-.79,.27-1.58,.58-2.32,.97-2.25,1.16-4.48,2.36-6.72,3.54-.93,.49-1.81,.59-2.9,.3-7.1-1.88-14.1-4.02-20.67-7.39-1.7-.87-3.52-1.5-5.27-2.23-2.43,2.67-2.85,5.89-3.51,9-.37,1.72-.41,3.53-.91,5.21-.93,3.14-2.01,6.24-3.16,9.31-1.71,4.59-3.65,9.09-5.26,13.71-1.45,4.16-3.07,8.21-5.22,12.06-.57,1.02-.92,2.18-1.3,3.29-.8,2.31-1.58,4.62-2.31,6.95-.48,1.52-1.14,3.06-1.23,4.62-.27,4.51-.3,9.03-.42,13.55-.01,.42-.06,.85,0,1.27,.32,2.1,1.66,3.06,3.74,2.62,.65-.14,1.26-.47,1.86-.77,1.81-.91,3.61-1.84,5.42-2.76,2.87-1.47,5.59-3.18,7.89-5.46,1.92-1.9,3.75-3.9,5.71-5.75,2.02-1.91,4.05-3.81,6.26-5.49,1.86-1.42,3.88-2.69,5.99-3.68,2.05-.96,2.74-1.94,2.41-4.27-.47-3.33-.84-6.68-1.14-10.03-.08-.9-.43-2.11,1.24-2.52,2.71,3.5,2.45,8.12,4.27,12.19,6.92-2.2,13.32-5.63,20.51-7.06,.27,1.8-.78,2.81-1.49,3.86-.72,1.08-1.75,1.94-2.85,3.12,3.85,.89,7.32,1.91,10.99,1.78,.51-.02,1.05-.09,1.51,.06,.41,.14,.73,.56,1.09,.85-.3,.35-.53,.87-.9,1.01-1.21,.46-2.48,.78-4.13,1.27,5.97,2.92,12.51,3.47,17.28,7.77,.66-.16,1.22-.42,1.79-.42,2.87,0,5.77-.17,8.6,.19,2.26,.29,4.32-.07,6.43-.61,.49-.13,.98-.26,1.47-.39,6.27-1.67,12.52-3.45,18.82-4.99,3.63-.89,7.13-1.96,10.4-3.82,2.63-1.5,5.39-2.77,8.11-4.12,1.51-.75,3.14-1.3,4.58-2.16,3.42-2.04,6.68-4.29,8.75-7.88,2.07-3.58,4.25-7.1,6.33-10.68,1.95-3.36,3.89-6.72,5.7-10.15,2.01-3.81,3.68-7.8,5.84-11.52,4.76-8.17,9.75-16.21,14.62-24.31,2.22-3.7,4.41-7.4,7.87-10.15,.63-.5,1-1.34,1.42-2.06,2.25-3.92,1.84-8.13,1.24-12.34-.28-1.94-.51-3.86,.28-5.74,.96-2.28,2.89-2.7,4.52-.91,.67,.73,1.11,1.67,1.63,2.53,.27,.45,.49,.94,.73,1.41h.52c.24-.94,.53-1.86,.72-2.81,.2-1-.21-2.26,1.37-2.75,.49,.67,.97,1.33,1.45,1.99,3.39-1.58,5.41-3.17,6.71-5.16,3.42-5.23,6.79-10.49,10.32-15.65,1.42-2.07,3.02-4.09,4.85-5.8,2.31-2.17,5.23-3.72,6.67-6.75,.03-.07,.11-.13,.17-.18,1.43-1.41,2.88-1.37,4.39,0,.74,.67,1.56,1.29,2.44,1.77,1.96,1.08,3.57,2.54,4.93,4.3,1.03,1.34,2.16,2.61,3.14,3.98,.87,1.22,1.73,2.49,2.37,3.84,1.7,3.58,3.31,7.21,4.9,10.84,.51,1.16,.9,2.36,1.29,3.57,1.87,5.78,3.59,11.6,5.61,17.32,1.8,5.09,3.9,10.07,5.91,15.09,2.77,6.9,5.45,13.82,7.29,21.04,.93,3.68,1.84,7.37,2.98,10.99,3.09,9.78,7.74,18.89,12.01,28.17,1.79,3.88,4.93,5.34,8.52,6.55-.28-3.12-.49-6.05-.81-8.96-.19-1.75-.46-3.51-.84-5.23-1.86-8.5-3.41-17.04-3.08-25.8,.1-2.69,.33-5.38,.32-8.07-.03-4.47-.4-8.94-.26-13.4,.13-4.03,.79-8.03,1.14-12.05,.18-2.03,1.1-4.01,.62-6.29-1.74,.75-2.17,3.82-4.75,2.43-.32-1.88,1.9-2.03,2.24-3.28-.71-.53-1.33-1-1.99-1.49,1.2-1.69,2.8-2.16,4.36-2.32,2.07-.22,3.36-1.25,4.47-2.89,1.51-2.23,3.18-4.35,4.8-6.5,2.85-3.77,5.78-7.47,8.53-11.32,1.15-1.61,2.14-3.42,2.31-5.64-1.84-.57-3.56-1.33-5.36-1.64-4.81-.83-9.68-1.37-14.48-2.22-5.27-.93-9.79-3.39-12.77-7.9-2.99-4.52-5.02-9.4-2.41-14.92,.07-.15,.17-.3,.2-.46,.29-1.67,1-3.31,.52-5.3-1.22,.6-2.3,1.06-3.3,1.65-5.29,3.1-11.03,4.07-17.06,3.54-4.69-.42-9.38-.89-14.06-1.42-.68-.08-1.41-.52-1.94-1-2.51-2.26-5-4.54-7.42-6.89-3.05-2.98-5.46-6.43-7.16-10.37-.21-.48-.51-.91-.84-1.48-1.72,3.26-2.42,6.79-4.93,9.47-.4-.54-.65-1.05-.6-1.53,.46-4.87,.33-9.75,.1-14.62-.05-1.06-.37-1.81-1.31-2.23-.76-.34-1.56-.63-2.36-.84-1.46-.39-2.96-.65-4.41-1.06-1.65-.47-2.39-1.81-2.81-3.33-.3-1.07,.17-1.62,1.28-1.59,.41,.01,.82,.17,1.23,.25,2.86,.53,5.73,1.06,8.9,1.65-4.49-15.84-8.18-31.51-13.23-47.21-.43,1.41-.69,2.39-1.02,3.34-2.24,6.45-4.45,12.92-6.77,19.34-.83,2.3-1.72,4.63-2.99,6.69-.79,1.28-2.25,2.33-3.65,2.94-.59,.26-1.83-.84-2.71-1.41-2.49-1.61-4.96-3.01-8.15-2.96-3.52,.05-7.06-.13-10.56-.91-2.35-.53-4.79-.76-7.27-.24-2.04,.43-4.23,.81-6.25,.51-2.01-.3-3.84-.13-5.72,.39-3.41,.95-6.8,1.98-10.43,1.72-.74-.05-1.51,.15-2.26,.29-3.23,.62-6.45,1.25-9.68,1.92-.52,.11-1.01,.38-1.7,.65,2.32,3.86,5.11,7.03,8.32,9.78,2.56,2.19,5.38,4.07,8.07,6.11,2.15,1.63,4.31,3.26,6.41,4.96,2.87,2.34,6.13,4.3,8,7.66,.77,1.38,1.79,1.97,3.29,1.78,1.57-.2,2.7,.49,3.22,1.88,1.4,3.8,2.67,7.65,4.03,11.46,.36,1-.11,1.64-.78,2.19-1.03,.85-2.33,.73-3.39-.39-.81-.85-1.48-1.83-2.32-2.89Zm376.76,80.32c4.62,16.73,3.93,32.78-4.2,48.4,1.59-.93,3.05-1.77,4.77-2.77,.35,2.47,.58,4.54,.95,6.59,.93,5.24,2.3,10.37,4.12,15.38,.56,1.56,1.31,3.16-.18,5.06-1.41-.62-2.82-1.25-4.35-1.93v4.37c-1.61-.25-2.95-.45-4.4-.67,.09,.36,.17,.66,.23,.97,.43,2.11-.79,3.23-2.82,2.55-.47-.16-.9-.46-1.33-.73-4.45-2.77-8.88-5.56-13.34-8.31-1.72-1.06-3.43-2.2-5.28-2.99-1.36-.58-1.77-1.45-1.77-2.71,0-.59,.14-1.18,.23-1.84-2.94,2.48-5.73,4.84-8.53,7.2l.21,.35c2.21-1.39,4.41-2.78,6.74-4.24,1.99,2.82,4.81,4.19,7.58,5.63,2.62,1.36,5.32,2.6,7.86,4.11,2.53,1.5,4.9,3.27,7.33,4.92,.56,.38,1.08,.83,1.66,1.14,2.08,1.12,4.24,2.11,6.26,3.31,4.5,2.67,8.14,6.21,10.72,11.07,1.49-.67,2.38,.3,3.21,1.5,1.01,1.46,2.01,2.93,3.12,4.31,1.3,1.61,3.74,2.13,5.52,1.3,1.39-.65,2.94-3.57,2.71-5.13-.36-2.49-2.61-4.69-5.14-5.24-1.88-.41-3.62-.05-5.31,.6-1.71-2.6-1-4.2,2.32-5.39-.21-.16-.4-.44-.61-.45-3.52-.3-5.27-2.74-6.66-5.54-1.32-2.65-2.56-5.33-3.74-8.04-.5-1.15-.82-2.39-1.07-3.62-1.01-4.95-1.85-9.94-2.98-14.85-1.17-5.05-1.98-10.1-1.67-15.29,.02-.34-.04-.68-.03-1.01,.05-2-.24-4.08,.22-5.98,1.19-4.9,1.96-9.96,4.68-14.36,.6-.97,.49-1.77-.35-2.46-2.08-1.7-2.06-3.89-1.5-6.22,.3-1.23,.66-2.44,.94-3.67,.46-1.99,.36-7.66-.15-9.49-2.49,1.29-1.48,5.3-4.72,6.12-.46-.69-.86-1.3-1.26-1.91Zm100.33-173.02l-.12,.56c2.24,.7,4.47,1.45,6.73,2.09,3.9,1.12,7.8,2.26,11.29,4.4,4.45,2.72,9.38,4.2,14.29,5.71,6.89,2.12,13.43,5.04,19.66,8.66,1.52,.88,2.52,2.11,3.2,3.77,.77,1.86,1.81,3.62,2.85,5.36,3.6,5.99,7.94,11.53,10.15,18.33,.84,2.6,1.94,5.02,1.05,7.8-.1,.31-.1,.69-.02,1.01,.79,3.41-.03,6.67-.72,9.99-1.06,5.11-2,10.25-2.78,15.41-.31,2.02-.05,4.12-.05,6.56,1.79-.75,3.19-1.28,4.55-1.92,2.39-1.13,4.65-.77,6.69,.71,1.22,.88,2.3,1.98,3.33,3.09,1.01,1.1,1.87,2.34,2.83,3.58,.11-.23,.2-.32,.18-.38-.14-.47-.23-.98-.46-1.41-1.43-2.61-1.04-5,.68-7.33,.65-.88,1.13-1.88,1.64-2.86,.64-1.23,1.24-2.49,1.92-3.88-2.19-.05-2.55,2.06-4.05,2.69-1.87-1.77-2-4.44-3.7-6.9-.34,2.95-.62,5.37-.91,7.86-4.57,.02-8.01,2.84-12.49,4.18,.24-1.26,.31-2.05,.54-2.8,1.11-3.72,2.44-7.38,3.34-11.14,.57-2.35,.54-4.85,.75-7.28,.31-3.61,.63-7.23,.84-10.85,.05-.89-.15-1.86-.48-2.69-.77-1.96-1.93-3.79-2.51-5.79-1.16-3.96-3.24-7.41-5.38-10.86-1.61-2.58-3.43-5.07-4.67-7.82-2.43-5.38-6.17-9.46-11.21-12.35-2.7-1.55-5.6-2.75-8.36-4.19-1.02-.53-2.04-1.2-2.84-2.02-.66-.67-.58-1.54,.41-2.09,.78-.43,1.54-.91,2.55-1.51-7.55-3.54-14.79-6.79-22.55-9.05-.46,1.06-.86,1.89-1.18,2.74-.89,2.33-2.32,3.28-4.72,2.98-.91-.11-1.8-.42-2.7-.63-2.52-.59-5.05-1.17-7.57-1.75Zm-349.08,92.91c-.8-1.91-1.56-3.69-2.28-5.49-.44-1.11-1.07-1.64-2.33-1.17-1.5,.56-3.13,.82-4.53,1.54-3.22,1.66-6.39,3.44-9.49,5.33-6.5,3.97-13.46,4.89-20.89,3.71-5.16-.82-9.37-3.15-12.87-6.95-3.01-3.26-5.49-6.91-7.18-10.98-4.05-9.74-8.1-19.48-11.76-29.37-2.51-6.79-4.49-13.79-6.46-20.76-1.28-4.53-1.58-9.34-3.62-13.65-1.61-3.39-1.48-6.66,.04-9.99,.28-.61,.5-1.26,.81-1.85,2.45-4.72,4.99-9.39,7.36-14.15,1.46-2.94,2.79-5.95,3.93-9.03,.72-1.94,.38-2.5-1.28-3.61-1.54-1.03-3.11-2.04-4.74-2.92-1.15-.62-2.44-.99-3.66-1.47,1.33,1.8,3.3,3.07,5.27,3.74,2.23,.76,2.59,1.28,2.67,3.69,.05,1.46-.12,2.83-.86,4.15-1.63,2.96-3.18,5.95-4.74,8.95-1.52,2.92-3.32,5.74-4.42,8.82-1.42,3.94-2.26,8.09-3.37,12.21,1.6,.34,1.89,1.72,2.25,3,2.25,8.04,4.48,16.08,6.73,24.12,2.3,8.2,4.61,16.4,6.9,24.6,.12,.44,.02,.94,.02,1.75-3.89-.77-7.6-1.51-11.4-2.27,.42,1.64,1.73,1.9,2.93,2.2,1.22,.31,2.49,.43,3.73,.7,2.93,.65,3.87,1.9,3.94,4.92,.05,2.36,.21,4.71,.33,7.07,.03,.51,.13,1.01,.27,2.05,1.25-3.02,2.26-5.45,3.5-8.45,.5,1.1,.78,1.57,.94,2.07,.51,1.6,.78,3.3,1.48,4.81,3.13,6.77,8.25,11.87,14.06,16.36,.43,.34,1.07,.5,1.63,.57,4.43,.52,8.86,1.14,13.31,1.45,5.29,.37,10.43-.27,15.15-3.04,2.22-1.31,4.61-2.33,7.09-3.57,.17,.61,.43,1.01,.36,1.34-.74,3.36-1.29,6.79-2.37,10.04-1.2,3.62,.39,6.43,1.81,9.38,.14-.35,.11-.67,0-.97-2.34-6.75,1.13-12.03,4.4-17.36,.21-.34,.67-.51,.95-.82,.6-.67,1.34-.83,2.06-.42,1.52,.88,2.88,.42,4.33-.3Zm266.13,2.53c-.66-1.28-1.27-2.29-1.71-3.38-2.45-6.13-5.35-12-9.4-17.27-.76-.99-1.4-2.14-1.79-3.32-.22-.67-.03-1.69,.36-2.3,.53-.83,1.5-.59,2.29-.19,.52,.26,1,.6,1.53,.92,.64-3.48,.67-3.5,3.09-3.36l-.84-.86c.85-.7,1.69-1.4,2.62-2.17-.97-.61-2.48-1.52-3.93-2.5-1.39-.94-2.9-1.79-4.04-2.98-2.45-2.54-4.7-5.29-7.05-7.93-.73-.82-1.67-1.49-2.23-2.41-.54-.89-.73-2-1.07-3.02-2.29,1.12-3.02,.92-3.56-1.51-.68-3.03-1.05-6.13-1.48-9.2-.27-1.92-.22-3.89-.64-5.77-.26-1.17-.98-2.35-1.78-3.26-1.16-1.31-2.44-1.14-3.3,.39-1.17,2.09-1.91,4.35-1.2,6.77,.76,2.58,1.57,5.16,2.48,7.7,1.45,4.07,2.83,8.12,1.23,12.2,1.52,1.05,3.06,1.83,4.21,3,2.01,2.03,4.02,4.13,5.58,6.49,3.16,4.79,5.92,9.84,9.03,14.66,3.03,4.7,5.47,9.69,7.9,14.7,1.45,3,1.29,5.57-2.86,6.73-.14,.04-.25,.19-.36,.29v2.31c.39-.61,.68-1.59,1.31-1.94,.95-.52,1.68,.33,2.29,1.07,.28,.34,.65,.6,1.24,1.13-1.23-3.46-1.32-5.04,2.06-5.01Zm-18.19,125.72c-3.22,2.74-6.2,4.84-9.51,6.58-3.01,1.58-6.05,2.87-9.25,3.99-2.03,.71-3.97,1.85-5.72,3.11-1.23,.88-.99,1.81,.26,2.58,5.48,3.34,10.96,6.67,16.45,9.99,1.13,.68,2.29,1.3,3.53,2-.49-4.21-.26-4.53,4.69-3.3-.33-1.41-1.03-2.87,.78-3.75,1.62-.8,2.76,.57,4.54,1.01-2.95-7.23-4.48-14.37-5.77-22.19Zm-347.5-76.92c-1.2,1.84-1.28,1.84-1.22,3.43,.12,2.69,.28,5.39,.56,8.07,.41,3.94-1.05,7.25-3.4,10.21-1.51,1.91-3.34,3.56-4.86,5.46-1,1.24-1.71,2.71-2.55,4.07-4.43,7.19-8.87,14.37-13.27,21.57-1.05,1.73-2.01,3.51-2.93,5.31-2.3,4.51-4.45,9.1-6.87,13.54-2.62,4.81-5.52,9.47-8.21,14.25-3.08,5.48-7.27,9.69-13.23,11.98-1.73,.67-3.42,1.42-5.12,2.17-.83,.37-1.64,.8-2.45,1.21l.31,.65c3.24-1.36,6.51-2.64,9.71-4.08,4.43-2,7.83-5.17,10.37-9.33,2.38-3.89,5.02-7.62,7.35-11.53,5.97-10,11.91-20.03,17.72-30.13,3.68-6.39,7.57-12.56,12.79-17.86,2.3-2.33,4.34-4.97,6.22-7.66,4.97-7.13,9.89-14.3,14.63-21.58,2.2-3.38,3.95-7.06,5.88-10.61,.08-.15-.06-.41-.17-1.1-1.46,2.46-2.65,4.59-3.97,6.64-1.36,2.1-2.72,4.13-5.09,5.41-2.53,1.37-5.32,2.54-6.91,5.25-.46,.79-1.22,1.16-2.26,.65-.73-2.01-.78-4.46-3.05-6.01ZM238.71,5.8c-1.44,1.31-1.62,4.08-4.48,3.25-.05,3.18-.41,6.07-1.55,8.86-2.54,0-4.97,0-7.41,0-1.18,0-2.37,0-3.54-.1-2.93-.23-5.85-.54-8.78-.75-3.02-.22-6.05-.44-9.08-.49-1.48-.02-2.31-.67-3.09-1.79-.8-1.14-1.77-2.17-2.63-3.2-2.08,1.38-1.42,3.39-1.93,5.01-.53,1.68-1.25,3.3-1.89,4.94,.73-.52,1.27-1.15,1.74-1.83,1.22-1.76,2.97-2.44,4.95-2.1,3.14,.53,6.3,.99,9.46,1.37,.98,.12,2.01-.09,3.01-.17,.75-.06,1.51-.25,2.26-.19,4.11,.3,8.23,.65,12.33,1.01,1.63,.14,2.22,1.14,1.57,2.62-.31,.72-.73,1.4-1.19,2.26l4.91-.55c-.45,1.78-.76,3.14-1.14,4.47-.41,1.47-.78,2.92-.23,4.44,1.72,4.67,3.46,9.32,6.4,13.41,1.63,2.26,3.31,4.49,4.83,6.83,1.83,2.82,1.47,4.61-1.13,6.73-.12,.09-.15,.29-.3,.61,2.26,3.25,6.21,3.92,9.31,6.13,.63-.84,1.02-1.49,1.54-2.01,.47-.47,1.08-.81,1.42-1.05-3.07-3.67-6.1-7.28-9.11-10.91-1.67-2.01-3.36-4.01-4.98-6.06-2.05-2.61-3.79-5.42-4.33-8.76-.42-2.65-.63-5.33-.98-7.99-.58-4.4,1.95-7.03,5.06-9.39,1.98,1.33,3.83,2.57,5.67,3.81-.95-3.96-3.02-7.38-3.62-11.31,2.71-1.59,5.33-3.12,7.94-4.66-1.26-.17-2.31,.06-3.36,.29-1.15,.25-2.29,.62-3.45,.72-4.21,.37-4.08,1.08-4.2-3.45ZM10.84,226.38l-.06,.28c2.5,1.21,4.97,2.46,7.51,3.59,.62,.28,1.53,.41,2.13,.16,4.59-1.9,9.45-1.98,14.18-1.48,6.78,.73,13.47-.23,20.19-.33,1.46-.02,2.91-.73,4.35-1.2,2.88-.94,5.74-1.91,8.6-2.91,1.39-.48,2.66-.21,3.91,.4,3.11,1.5,6.22,3,9.33,4.52,1.51,.74,3.29,.25,3.71-1.34,.81-3.07,1.86-6.14,.8-9.43-1.35-4.19-1.98-8.51-2.16-12.91-.1-2.43-.45-4.86-.72-7.58-.92,2.77-1.57,5.3-2.59,7.67-1.01,2.36-1.92,4.69-1.74,7.3,.09,1.28-.43,2.23-1.21,3.2-2.86,3.57-6.76,5.55-10.88,7.13-5.92,2.26-11.98,4.04-18.32,4.66-3.5,.34-6.99,1.02-10.54,.22-4.38-.99-8.85-1.12-13.33-1.18-.57,0-1.25,.02-1.69,.32-1.58,1.05-3.26,.79-4.9,.48-2.21-.42-4.38-1.03-6.57-1.56Zm546.28,151.54l-.47-.44c-.5,.43-1.03,.84-1.5,1.3-4.22,4.08-7.57,8.8-10.46,13.91-2.93,5.17-5.37,10.48-6.62,16.33-.34,1.61-1.22,3.1-1.79,4.67-.6,1.65-1.13,3.32-1.69,4.99-.21,.61-.43,1.2-.7,1.95-1.12-.5-2-1.05-2.95-1.27-.76-.18-1.75-.21-2.38,.15-.85,.48-.49,1.46-.25,2.3,.68,2.43,1.39,4.86,1.94,7.33,.63,2.84,1.11,5.72,1.66,8.59q2.93-.85,4.83,1.68c.34-1.52,.72-2.77,.88-4.05,.16-1.3,.12-2.62,.16-3.83,1.52-.49,1.92,.47,2.4,1.23,1.41,2.23,3.51,2.95,5.99,2.9-2.38-1.6-3.58-4.03-4.8-6.43-2.87-5.65-2.4-11.81-2.48-17.83-.06-4.2,1.9-8.02,3.88-11.64,2.34-4.29,4.89-8.47,7.44-12.64,1.05-1.72,2.33-3.3,3.54-4.92,1.09-1.45,2.25-2.86,3.37-4.28Zm-98.8-220.17c.26,.57,.35,.99,.6,1.3,2.31,2.89,4.34,6.09,7.03,8.58,6.11,5.66,13.24,7.79,21.47,4.99,8.26-2.81,15.61-7.23,22.38-12.63,3.61-2.89,6.95-6.12,10.41-9.19-.65-.15-1.23-.08-1.61,.23-3.64,3-7.23,6.08-10.89,9.06-2.02,1.64-4.08,3.27-6.28,4.67-2.49,1.58-5.11,2.97-7.74,4.32-1.94,1-3.93,1.98-6,2.63-1.82,.58-3.79,.94-5.7,.95-3.09,.02-6.21-.01-8.96-1.92-1.38-.96-1.92-2.22-1.63-3.67,.39-1.96,.94-3.95,1.8-5.75,1.31-2.77,2.93-5.39,4.48-8.18-2.35,.76-4.56,1.51-6.79,2.2-2.5,.77-3.27,.62-4.68-1.64-1.2-1.93-2.06-4.08-3.18-6.35-.47,2.32-1.03,4.51-1.35,6.74-.29,1.99-.85,3.59-3.36,3.66Zm-159.73,59.88c-4.42,9-6.94,18.78-11.86,27.39-2.75,.2-4.88-.83-6.87-2.11-3.67-2.37-7.66-2.81-11.89-2.5-5.45,.4-10.91,.72-16.37,.92-4.38,.16-8.74,.31-13.06,1.16-7.03,1.38-14.09,2.59-20.72,5.45-1.36,.59-2.69,1.26-3.94,1.85,.19,1.63,.87,2.42,2.2,2.18,1.1-.2,1.64,.37,2.39,.99,1.81,1.52,3.75,2.87,5.64,4.29-1.42-2.96-4.15-4.94-4.81-8.43,.82-.38,1.54-.89,2.33-1.05,4.04-.82,8.09-2.07,12.16-2.19,4.56-.13,8.81-1.26,13.17-2.19,1.12-.24,2.32-.14,3.48-.17,1.25-.03,2.52,.12,3.74-.06,3.77-.56,7.59-1,11.29-.11,3.51,.85,7.02,.86,10.55,.96,2.83,.08,5.29,.89,7.5,2.59,.72,.55,1.46,1.07,2.4,1.76,.94-.94,1.96-1.62,2.51-2.59,.99-1.75,1.83-3.62,2.51-5.52,2.43-6.74,4.78-13.51,7.13-20.28,.26-.75,.35-1.57,.52-2.36ZM124.52,437.32c0,1.11-.05,2,.01,2.89,.11,1.67,.31,3.34,.41,5.02,.09,1.58-.55,2.8-2.02,3.48-.98,.45-2.14,.63-2.96,1.28-3.56,2.81-7.09,5.68-10.51,8.65-2.79,2.43-5.37,5.11-8.14,7.55-1.08,.95-2.45,1.58-3.68,2.36,1.38-.17,2.59-.68,3.76-1.28,2.87-1.48,5.6-3.27,7.59-5.8,6.53-8.33,15.23-12.28,25.58-12.71,3.92-.16,7.87,.38,11.82,.61,.88-2.89,4.02-1.7,5.75-3.06-3.48-1.38-7.5-1.05-10.98-3.09,1.27-1.94,3.64-2.52,4.49-5.23-6.35,2.44-12.21,4.69-18.22,7-1.97-2.16-1.49-5.17-2.89-7.67Zm288.76-98.68c.05-.55,.07-1.04,.14-1.52,.14-.92,.24-1.93,1.4-2.14,1.12-.2,1.62,.58,2.14,1.42,1.04,1.67,5.18,4.6,7.81,5.45-2.92-2.68-5.51-5.05-8.09-7.43-1.3-1.19-2.68-2.31-3.85-3.62-2.14-2.39-3.44-5.03-1.46-8.18-3.17-.97-3.39-1.3-3.07-4.54,.07-.75,.24-1.49,.34-2.24,.23-1.86-.13-3.58-1.57-4.85-.57-.51-1.52-1.09-2.12-.94-.64,.16-1.31,1.08-1.52,1.8-.21,.73,0,1.66,.23,2.44,.39,1.29,1,2.51,1.4,3.8,.43,1.36,.67,2.77-.19,4.33-1.48,.28-3.12,.59-4.75,.89,1.95,.32,3.2,2.48,5.46,2.03,.25-.05,.93,.74,.97,1.18,.06,.72-.14,1.51-.41,2.2-1.22,3.17-2.83,6.12-4.94,8.79-.67,.85-1.24,1.78-1.85,2.67,1.96-2.17,4.18-3.21,7.1-2.55l1.45,1.72c1.52-2.64,1.54-3.24,5.38-.71Zm121.66-32.67c-.78,1.21-1.33,2.16-1.97,3.05-1.02,1.42-.89,2.57,.08,4.12,2.46,3.92,4.72,7.98,6.89,12.08,2.26,4.28,4.64,8.43,8.01,11.96,1.43,1.5,2.97,2.5,5.11,2.19,1.2-.17,2.14,.25,2.91,1.16,.92,1.1,1.87,2.17,2.8,3.26,.85,.99,1.68,1.98,2.52,2.98-.97-4.89-3.95-8.3-7.79-11.06-1.98-1.43-4.47-2.44-5.9-4.29-3.75-4.86-7.68-9.66-10.08-15.43-1.09-2.62-2.81-4.98-3.18-7.73,1.21-1.35,2.31-2.57,3.41-3.8l-.32-.52c-1.42,.33-2.83,.65-4.51,1.04,.78,.38,1.26,.62,2.03,1ZM113.19,71.93c1.16-.07,2.07-.08,2.96-.19,2.16-.28,4.46-.22,6.43-.99,5.08-1.99,10.02-4.35,15.02-6.57-3.94,.53-7.8,1.26-11.66,1.96-3.13,.57-6.28,.78-9.37,1.89-5.05,1.81-4.89,3.99-4.17,7.19,.82,3.61,1.72,7.23,2.96,10.72,2.23,6.28,3.45,12.68,3.02,19.35-.12,1.85-.35,3.68-.46,5.53-.06,.92-.17,1.92,.09,2.77,.43,1.37-.18,2.04-1.19,2.7-1.74,1.14-3.45,2.33-5.18,3.49,1.84-.36,3.52-1.04,5.23-1.68,1.97-.75,2.98-2.16,2.9-4.27-.08-2.1-.3-4.19-.35-6.29-.06-2.96,.16-5.93-.05-8.87-.38-5.2-.97-10.4-3.21-15.23-.5-1.07-1.1-2.1-1.54-3.19-1.05-2.59-1.38-5.3-1.44-8.32Zm320.84,251.37l.03,.4c2.59-.18,5.2-.25,7.78-.58,1.85-.23,3.43-1.07,4.89-2.39,2.67-2.42,5.61-4.55,8.38-6.76,1.22,.36,1.87,.96,1.98,2.16,.32,3.52,1.86,6.64,3.35,9.75,.73,1.53,1.71,2.94,2.58,4.4l.52-.24c-.23-1.05-.41-2.11-.71-3.14-.81-2.84-1.61-5.68-1.3-8.68,.14-1.33,.29-2.67,.49-4,.24-1.64,.38-3.4-1.04-4.45-1.51-1.13-3.34-1.83-5.19-2.81-.41,.58-.84,1.09-1.16,1.65-.63,1.09-1.17,2.22-1.8,3.3-1.91,3.25-4.71,5.71-7.4,8.27-1.22,1.16-2.6,1.75-4.22,1.99-2.4,.35-4.79,.76-7.19,1.14Zm28.03-225.55c-2.72-1.13-4.85-2.59-6.5-4.66-.37-.46-.72-.94-1.09-1.4-1.54-1.98-1.78-2.15-3.94-.76-1.67,1.08-3.16,2.5-4.57,3.93-1.05,1.07-1.26,2.57-1.08,4.04,.66,5.59,1.33,11.17,2.03,16.76,.29,2.31,.68,4.61,1.02,6.91,.34-.59,.37-1.15,.34-1.7-.27-5.21-.66-10.41-.78-15.62-.05-2.04,.03-4.23,1.57-5.79,4.31-.69,8.66,.42,13-1.71ZM176.54,381.33c-.32-.08-.5-.2-.63-.16-3.53,1.11-7.07,2.2-10.58,3.38-2.48,.83-4.93,1.75-7.36,2.7-5.11,1.99-10.35,3.72-15.25,6.16-3.22,1.6-6.09,3.2-9.66,1.47-5.56-.06-10.35-2.8-15.45-4.46-1.27-.42-2.45-1.13-3.69-1.65-2.15-.91-4.31-1.79-6.64-2.75l-1.12,2.19c.82-.1,1.69-.46,1.98-.19,1.56,1.46,3.66,1.69,5.43,2.62,5.11,2.66,10.54,4.49,16.02,6.19,1.69,.52,3.46,1.44,5.1,1.26,1.74-.19,3.38-1.43,5.04-2.27,1.5-.76,2.9-1.81,4.47-2.37,5.31-1.88,10.83-3.12,16.04-5.34,5.04-2.15,10.18-4.04,15.27-6.07,.34-.14,.63-.42,1.03-.7Zm214.06,58.97c-1.03-.13-2.04-.08-2.91-.4-1.57-.58-3.07-1.36-4.58-2.1-2.49-1.22-4.55-2.83-5.4-5.66-.34-1.12-.96-2.15-1.47-3.21-1.38-2.86-2.78-5.71-4.37-8.98-.08,.75-.19,1.02-.13,1.23,.87,3.17,1.67,6.35,2.66,9.48,1.02,3.23,2.19,6.43,5.09,8.54,2.32,1.68,4.62,3.4,7.06,4.89,2.01,1.22,3.9,2.74,6.38,3.49-.85-2.64-1.61-5.02-2.34-7.29Zm-3.68-20.05l.32,.02c.03-.34,.1-.68,.07-1.01-.6-6.27-1.36-12.54-1.79-18.82-.53-7.76,.06-15.49,1.18-23.19,.72-4.91,1.22-9.87,1.65-14.81,.24-2.75,.12-5.53,.17-8.38-1.23,.35-2.55,.73-4,1.15,2.32,1.9,2.37,1.9,2.29,4.93-.03,1.24-.32,2.48-.53,3.71-.6,3.57-1.24,7.13-1.79,10.7-.13,.82,0,1.69,.03,2.53,.1,2.27,.34,4.53,.31,6.79-.05,4.62-.19,9.25-.38,13.87-.2,4.91,.32,9.76,1.07,14.59,.41,2.65,.93,5.28,1.4,7.92Zm279.65-217.45c-2.92-1.63-4.65-4.34-6.26-7.13-1.39-2.41-2.64-4.9-3.99-7.34-.78-1.42-1.63-2.8-2.44-4.21-.25,.74-.16,1.32,.07,1.83,1.64,3.51,3.36,6.99,4.97,10.52,1.47,3.22,3.01,6.42,4.18,9.76,.68,1.95,.92,1.91-1.08,3.3-3.07,2.13-5.64,4.74-7.39,8.17-1.1,2.16-2.65,4.08-4.09,6.25,3.15-1.98,5.17-4.63,6.19-7.97,.53-1.72,1.47-2.36,3.27-2.48,1.56-.11,3.07-.84,4.6-1.29,.88-.26,1.09-.94,1.17-1.75,.24-2.5,.52-5,.79-7.66ZM50.32,141.24c1.52,.57,2.92,.89,4.1,1.58,1.74,1.02,3.3,2.33,4.97,3.47,2.19,1.49,4.37,3.01,6.98,3.91-.06-2.28,.04-2.43,2.03-2.73,1.24-.19,2.5-.28,3.75-.41,1.22-.13,2.41-.35,3.51-1.52-2.6,0-4.95,.21-7.25-.06-2.57-.3-5.14-.86-7.62-1.62-2.19-.67-3.97-2.06-5.33-4.05-1.21-1.77-2.44-3.68-4.92-4.05-1.59,1.96-.25,3.89-.22,5.49Zm620.65,134.85c-.15,2.05-.11,3.76-.43,5.4-.35,1.8-1.67,2.73-3.45,3.29-1.79,.56-2.98-.13-3.97-1.4-1.46-1.85-2.84-3.77-4.22-5.69-2.26-3.15-4.44-6.35-6.75-9.47-.59-.79-1.25-1.7-2.5-1.77,2.63,4.36,5.38,8.59,8.28,12.72,1.83,2.61,3.82,5.12,5.9,7.54,.58,.68,1.81,1.37,2.59,1.22,3.35-.62,6.97-2.91,6.48-7.07-.2-1.69,.04-3.36,1.22-4.72-.58-.67-1.06-1.21-1.25-1.44-.81,.59-1.43,1.04-1.91,1.39Zm-80.46-124.84c-1.31,1.9-.4,4.25-1.86,5.67-1.39-.13-2.55-.24-3.71-.36l-.13,.54c4.65,3.63,9.45,7.01,15.44,8.56-3.1-5.03-5.53-10.24-9.75-14.42Zm16.21,16.11c2.48,.67,4.86,.55,7.2-.17,7.97-2.44,15.95-4.85,23.91-7.33,1.18-.37,1.92-.16,2.52,.91,.61,1.11,1.29,2.18,1.97,3.24,1.56,2.43,3.15,4.85,4.72,7.28-1.83-5.3-6.12-9.2-7.75-14.78-.83,.16-1.59,.2-2.27,.47-5.73,2.23-11.52,4.34-17.13,6.83-3.76,1.67-7.56,2.8-11.65,3.05-.51,.03-1.01,.32-1.52,.5Zm64.04-18.99c-.08-.3-.13-.62-.26-.91-4.15-9.4-8.34-18.79-12.43-28.22-.61-1.4-1.42-1.84-2.88-1.83-3.89,.03-7.35,1.73-10.99,2.69-1.62,.43-3.2,1.06-4.79,1.59,4.89-.23,9.35-2.03,14.09-3.51,3.48,4.17,6.59,8.58,8.69,13.56,2.43,5.76,5.02,11.41,8.57,16.62Zm-92.58-38.16l.19,.26c.95-.66,1.91-1.3,2.85-1.98,1.04-.77,2.07-1.17,3.48-1.03,3.35,.31,6.72,.36,9.65,.49-1.31-1.37-2.84-3.14-4.55-4.7-1.35-1.23-3.09-2.53-4.91-1.47-1.68,.98-3.12,2.52-4.36,4.06-1.02,1.27-1.58,2.9-2.34,4.38ZM149.26,449.39l-.1,.72c1.02,.33,2.04,.63,3.04,.99,3.48,1.27,6.95,2.56,10.41,3.87,.53,.2,1.18,.47,1.44,.91,.58,.99,1.46,1.3,2.45,1.6,4,1.22,8.08,1.71,12.22,1.15,2.83-.38,5.63-.97,8.44-1.51,.48-.09,.91-.42,1.36-.63-.77-.25-1.41-.11-2.06-.03-1.49,.19-3.01,.63-4.46,.48-3.37-.36-6.69-.29-10.05,.15-1.35,.18-2.85,.45-4.03-.82-1.47-1.6-3.46-2.34-5.46-3.05-2.93-1.04-5.84-2.17-8.81-3.11-1.4-.44-2.93-.5-4.39-.74Zm373.82-141.58c-.05-.06-.1-.16-.15-.17-.16-.02-.32,0-.48,0-1.88,.1-2.01-.04-1.62-1.9,.18-.89,.4-1.77,.75-3.25-1.56,1.63-2.73,2.85-4.24,4.44-.96-2.06-1.73-3.73-2.51-5.4l-.34,.07c-.25,3.78-.49,7.56-.74,11.36,.15-.1,.39-.19,.54-.36,.22-.25,.35-.58,.57-.83,1.07-1.25,1.6-1.18,2.37,.3,.43,.82,.85,1.64,1.45,2.79q.77-3.93,4.4-7.05Zm172.94-120.38c-6.71-9.9-13.44-19.83-20.16-29.76l-.45,.25c.21,.51,.37,1.05,.65,1.52,1.67,2.83,3.25,5.73,5.09,8.46,4.07,6.01,8.28,11.93,12.43,17.88,.64,.91,1.42,1.61,2.44,1.66Zm-176.98-87.75c-2.15-1.11-4-1.82-6.02-1.93-4.71-.23-9.43-.56-14.14-.57-5.56,0-11.12,.29-16.68,.47-.73,.02-1.45,.12-2.44,.21,.44,.15,.59,.25,.75,.26,8.61,.2,17.22,.42,25.82,.56,3.79,.06,7.61-.32,11.29,.98,.29,.1,.65,.01,1.41,.01ZM77.28,144.9c.92-1.47,1.64-2.88,2.6-4.1,2.72-3.43,5.52-6.79,8.32-10.15,1.25-1.5,2.69-2.71,4.76-3.05,1.48-.25,2.95-.73,4.35-1.3,2.05-.82,4.04-1.81,6.05-2.73l-.25-.65c-2.06,.63-4.17,1.14-6.16,1.94-2.27,.9-4.45,1.98-7,1.88-.59-.02-1.32,.35-1.77,.77-.67,.62-1.19,1.4-1.7,2.17-2.26,3.45-4.04,7.24-6.98,10.19-1.39,1.39-2.08,2.94-2.21,5.02Zm497.2-31.83c-6.12,2.31-12.06,5.12-18.88,4.66,2.35,.88,4.71,1.63,7.1,2.29,1.45,.4,2.85,.03,4.15-.63,2.99-1.54,5.17-4.08,7.63-6.32Zm-18.1,320.25c1.06-.22,2.11-.52,3.18-.64,2.56-.3,5.04-1.13,7.72-.63,7.08,1.31,13.3,4.7,19.57,7.94,1.86,.96,3.67,1.62,6.27,1.93-.87-.51-1.21-.75-1.58-.92-3.28-1.53-6.57-3.04-9.85-4.57-4.4-2.05-8.6-4.59-13.66-4.9-4.05-.25-8.05-.51-11.66,1.8Zm-161.15-109.98l.21-.52c-6.65-2.31-13.76-3.26-20.08-6.6,2.75,2.57,5.75,4.62,9.5,5.31,1.65,.31,3.29,.69,4.94,.97,1.81,.31,3.62,.56,5.44,.83ZM102.45,397.98c-3.33,9.99-6.65,19.97-9.98,29.96,4.14-9.72,8.62-19.33,9.98-29.96ZM52.34,146.95c3.28,6.42,7.68,11.59,12.19,16.67-1.32-3.69-9.6-15.01-12.19-16.67Zm649.75,42.36c7.41,4.51,15.06,8.43,23.94,9.05-8.46-1.76-16.1-5.65-23.94-9.05ZM239.15,95.04l-.35-.37c-3.28,2.87-6.79,5.51-9.34,9.13-.97,1.37-1.82,2.86-1.89,4.74l11.58-13.5Zm-49.74,9.12c-.9-.08-1.65-.34-2.28-.17-1.74,.47-2.89-.17-3.83-1.57-.7-1.05-1.48-2.04-2.22-3.06,.81,2.3,2.31,4.32,1.34,6.91l1.47,.41,1.05-1.69,2.41,2.28c.63-.96,1.21-1.83,2.05-3.11Zm66.04-39.42c2.35,3.08,4.71,6.16,7.11,9.31l1.09-1.18c-2.09-3.53-5.24-5.79-8.2-8.13ZM95.29,469.96c-3.84,1.49-7.34,4.95-11.92,2.01-.07,1.33-.06,2.6,1.52,2.45,3.89-.37,7.44-1.66,10.4-4.45ZM542.54,145.4c-6.35,.18-12.09,.95-17.52,3.4,5.65-1.1,11.3-2.19,17.52-3.4Zm-185.62,231.54l5.29,16.08c-.81-5.68-2.77-10.97-5.29-16.08Zm239.52-86.64c1.34,2.96,3.66,4.35,6.9,4.21-2.3-1.4-4.6-2.81-6.9-4.21Zm83.58,183.9c-1.09,.43-2.02,.79-2.95,1.16,1.87-.02,1.09,3.23,3.55,2.56-1.01-1.13,1.19-2.57-.6-3.72Zm-14.23-6.91c2.13,2.23,4.42,4.24,7.28,5.48-1.91-2.48-4.56-4.04-7.28-5.48Zm-41.48-118.99c2.4-.74,4.8-1.51,6.76-3.18-2.41,.71-5.13,.73-6.76,3.18ZM81.38,186.59c.59,2.31,1.19,4.62,1.78,6.93,.92-2.76-.02-5.01-1.78-6.93Zm83.44,211.14c-2.06,.08-4.02,.58-5.7,1.97,2.1,.09,3.95-.74,5.7-1.97Zm44.68,52.28c2.33,.24,4.63-.59,6.14-2.23-2.24,.57-4.13,1.04-6.14,2.23Zm474.35,25.21c2.34,1.19,2.64,1.14,3.92-.59-1.51-1.17-2.64-.14-3.92,.59Zm-238.57-116.95q2.7,2.89,3.8,3.08c-.99-1.94-2.17-2.97-3.8-3.08Zm-.15-1.14l-.24,.62,.81-2.03c-1.49-.35-2.63-.62-3.77-.89l.61-.57,2.58,2.86Zm115.77,9.49c.09-1.78,.17-3.18,.24-4.58l-.59-.09c-.56,1.3-.48,2.75-.65,4.14,0,.08,.38,.21,.99,.53Zm107.25-95.25c-.15,1.66,.53,2.93,2.1,4.31-.13-2.09-1.17-3.17-2.1-4.31ZM466.02,97.69l.09,.29h6.96l-.03-.29h-7.02Zm95.62,256.6l.32,.09v-5.99h-.32v5.9ZM226.32,111.55l-.31-.05-.61,3.74,1.67-.8c-.27-1.02-.51-1.96-.75-2.89ZM77.84,181.14l2.48,3.61c-.12-1.69-.85-2.96-2.48-3.61ZM650.74,462.34h3.56c-1.19-.62-2.35-1.75-3.56,0ZM450.71,136.66l-.42,.11c.4,1.56,.8,3.13,1.2,4.69l.59-.16c-.46-1.55-.91-3.1-1.37-4.65Zm155.1,128.81l.39,.5c1.18-.41,1.89-1.33,2.52-2.34-.12-.14-.24-.28-.36-.41-.85,.75-1.7,1.5-2.55,2.25Zm14.44,34.24c0,1.75,0,3.51,0,5.26,0-1.75,0-3.51,0-5.26Zm-110.1,18.35l.54,.48c1.25-.54,1.67-1.65,1.69-3.07-.74,.86-1.49,1.73-2.23,2.59Zm-126.01,70.52v-3.93h0v3.93ZM82.9,466.15h.2v-5.15h-.2v5.15Zm527.39-168.75q-1.85-2.58-3.21-1.87c.91,.53,1.84,1.07,3.21,1.87Zm-370.35,34.64s0,0,0,0c0-1.09,0-2.18,0-3.27v3.27Zm558.03-43.91v.06c0-1.43,0-2.86,0-4.28v4.22Zm-414.33,114.11v0ZM191.15,105.88l2.44,.11c-.01-.38,.02-.76-.06-1.12-.04-.19-.27-.33-.5-.58-.53,.45-1.01,.86-1.88,1.6Zm434.67,383.39c-.74-.94-1.69-1.31-2.85-1.08,.75,.85,1.64,1.36,2.85,1.08Zm2.97-.29c-.64,.88-1.72,1.33-1.03,2.51,.11,.19,.7,.1,1.15,.15-.04-.89-.07-1.64-.12-2.66Zm-99.61-384.95c-.19,.33-.32,.55-.32,.56,.92,.61,1.85,1.2,2.79,1.79l.27-.42c-.91-.64-1.81-1.28-2.74-1.93Zm91.12,250.18c.2-1.12,.35-1.98,.54-3.09-1.29,.92-1.69,1.74-.54,3.09Zm-10.55,76.82c1.12-.47,2.23-.94,3.63-1.52-1.81-.46-2.76,.44-3.63,1.52Zm-526.58,23.23l.47,.29c.34-1.27,.67-2.54,1.01-3.8l-.58-.15-.89,3.67Zm111.88,.39l-.14-.44c-1.21,.37-2.41,.74-3.62,1.11l.16,.5c1.2-.39,2.4-.78,3.6-1.16Zm-26.74-375.81c.51-1.21,.15-2.03-1.05-2.49,.35,.83,.7,1.66,1.05,2.49Zm371.4,30.99c-.12,.19-.23,.38-.35,.57,1.05,.36,1.84,1.32,3.26,.86l-2.91-1.43ZM211.54,398.71c1.92,.67,1.82-.54,1.81-1.65-.54,.49-1.07,.98-1.81,1.65Zm348.07-25.96l-.43-.11-.67,2.76,.58,.11c.17-.92,.34-1.84,.51-2.76Zm69.21-9.48l.41-.42c-.72-.89-1.43-1.78-2.15-2.67l-.42,.33c.36,.51,.69,1.04,1.07,1.53,.34,.43,.73,.82,1.09,1.23Zm-388.89-38.62v0Zm-92.01,123.76l.21,.69,2.23-.67-.18-.62c-.75,.2-1.51,.4-2.26,.6Zm232.95-88.6q1.4-.46,1.63-1.55c-.61,.58-1.12,1.06-1.63,1.55Zm300.96,111.3c1.02-.15,1.77-.17,2.16-1.17-1.22-.5-1.63,.13-2.16,1.17Zm-265.38-133.85q-1.19-1.66-1.99-.56c.54,.15,1.06,.3,1.99,.56Zm-102.62-50.94l.55,.17c.22-.63,.44-1.25,.66-1.88l-.66-.21-.54,1.91Zm132.98,65.56l.19,.61,1.28-.22c-.13-.34-.25-.69-.38-1.03l-1.09,.64Zm-26.79-28.86v-.2h-1.96v.2h1.96Zm-263.37,122.66c-.42-.7-.97-.8-1.61-.33-.08,.06-.03,.31-.04,.47,.5,.02,1,.05,1.5,.05,.05,0,.1-.12,.15-.19Zm4.31-49.02l.64,.15,.35-1.9-.46-.11-.52,1.85Zm470.64,97.16c-.08,.99-.06,1.92,.75,2.4l.52-.31c-.42-.7-.85-1.39-1.27-2.09ZM149.35,110.2c-.42-.25-.66-.48-.94-.52-.14-.02-.49,.32-.46,.44,.06,.27,.29,.5,.45,.74l.95-.66Zm388.34,333.17l.63-.07c-.13-.55-.26-1.1-.39-1.66l-.52,.11c.1,.54,.19,1.08,.29,1.62ZM233.84,6.66l.66-.07-.33-1.36-.5,.11,.17,1.32Zm285.14,312.36c.48-.65,.89-1.38-.4-2.04,.18,.91,.29,1.47,.4,2.04Zm-204.92-45.38c0-.6,0-1.2,0-1.81,0,.6,0,1.2,0,1.81Zm347.02,190.77c.12-.23,.24-.42,.22-.43-.63-.44-1.27-.86-1.9-1.29l-.27,.45,1.95,1.27Zm-451.29-66.58l.81,.2,.17-1.72-.47-.09-.51,1.61Zm240.27-40.42q-1.2-1.34-2.46-1.05c.84,.36,1.43,.61,2.46,1.05ZM92,430.17l-.47-.15-.61,1.88,.46,.14,.62-1.88Zm533.32-70.93c-.21-.95-.63-1.57-1.96-1.31,.83,.56,1.4,.94,1.96,1.31Zm-85.83,73.66l-.79-.6c-.12,.19-.36,.42-.32,.55,.09,.23,.32,.43,.55,.56,.05,.03,.3-.26,.57-.51Zm-150.14,.7l-.36-.02,.17,1.65,.27-.02-.08-1.61Zm-3.52-72.61l-.32-.06v1.87h.32v-1.81ZM240.12,2.36l-.44-.31-.46,1.41,.39,.13,.51-1.22Zm154.48,447.23l.39-.41-.71-.78-.46,.49,.77,.69Zm-112.07-102.42c.03,.36,.06,.72,.09,1.08-.03-.36-.06-.72-.09-1.08Zm387.5-68.21c-.02-.3,0-.04,0,0,0-.02,0-.26,0,0Zm-107.16,70.61v-.06c0,.41,0,.82,0,1.23v-1.17Zm-243.47-74.07l-.44-.11c-.08,.47-.16,.94-.25,1.41,.16,0,.44,.05,.45,.02,.1-.44,.16-.88,.24-1.32Zm484.63-4.43l.04-.1c0-.44,0-.88,0-.75,0-.09-.02,.38-.04,.85Zm-365.39,81.07l-.37,.42c.57,.34,1.13,.69,1.7,1.03l.2-.32-1.53-1.13Zm154.43-65.95l.47-.12c-.17-.63-.33-1.26-.5-1.9l-.44,.11c.16,.64,.31,1.27,.47,1.91Zm28.78,70.94l.33-.37-1.12-.93-.19,.26c.33,.35,.65,.69,.98,1.04Z"/></g></g></svg>